<?xml version="1.0" encoding="utf-8"?>
<!-- Generator: Adobe Illustrator 17.0.0, SVG Export Plug-In . SVG Version: 6.00 Build 0)  -->
<!DOCTYPE svg PUBLIC "-//W3C//DTD SVG 1.1//EN" "http://www.w3.org/Graphics/SVG/1.1/DTD/svg11.dtd">
<svg version="1.1" id="图层_1" xmlns="http://www.w3.org/2000/svg" xmlns:xlink="http://www.w3.org/1999/xlink" x="0px" y="0px"
	 width="1920px" height="649.605px" viewBox="0 0 1920 649.605" enable-background="new 0 0 1920 649.605" xml:space="preserve">
<g>
	<linearGradient id="SVGID_1_" gradientUnits="userSpaceOnUse" x1="960" y1="655.8406" x2="960" y2="-99.9715">
		<stop  offset="0" style="stop-color:#A4C4EB"/>
		<stop  offset="1" style="stop-color:#637EC1"/>
	</linearGradient>
	<rect x="0" y="-100" fill="url(#SVGID_1_)" width="1920" height="749.605"/>
	<rect x="1606.416" y="-0.115" opacity="0" fill="#C7E8F9" width="313.553" height="649.836"/>
	<rect x="1292.088" y="-0.115" opacity="0" fill="#C7E8F9" width="313.553" height="649.836"/>
	<rect x="978.533" y="-0.115" opacity="0" fill="#C7E8F9" width="313.553" height="649.836"/>
	<rect x="664.984" y="-0.115" opacity="0" fill="#C7E8F9" width="313.551" height="649.836"/>
	<rect x="0" y="-100" opacity="0.1" fill="#93A9F5" width="1920" height="100"/>
	<path fill="#FFFFFF" d="M374.158,198.318"/>
	<g>
		<circle fill="#FFFFFF" cx="618.588" cy="336.701" r="20.605"/>
		<g>
			<g>
				<path fill="#FFFFFF" d="M532.398,57.385c3.225,0,3.225-5,0-5C529.174,52.385,529.174,57.385,532.398,57.385L532.398,57.385z"/>
			</g>
		</g>
		<g>
			<g>
				<path fill="#FFFFFF" d="M647.398,175.385c3.225,0,3.225-5,0-5C644.174,170.385,644.174,175.385,647.398,175.385L647.398,175.385
					z"/>
			</g>
		</g>
		<g>
			<g>
				<path fill="#FFFFFF" d="M707.398,316.385c3.225,0,3.225-5,0-5C704.174,311.385,704.174,316.385,707.398,316.385L707.398,316.385
					z"/>
			</g>
		</g>
		<g>
			<g>
				<path fill="#FFFFFF" d="M1236.193,211.176c3.225,0,3.225-5,0-5S1232.969,211.176,1236.193,211.176L1236.193,211.176z"/>
			</g>
		</g>
		<g>
			<g>
				<path fill="#FFFFFF" d="M1251.195,436.197c3.225,0,3.225-5,0-5S1247.971,436.197,1251.195,436.197L1251.195,436.197z"/>
			</g>
		</g>
		<g>
			<g>
				<path fill="#FFFFFF" d="M153.086,280.182c3.225,0,3.225-5,0-5C149.861,275.182,149.861,280.182,153.086,280.182L153.086,280.182
					z"/>
			</g>
		</g>
		<g>
			<g>
				<path fill="#FFFFFF" d="M264.098,244.179c3.225,0,3.225-5,0-5C260.873,239.179,260.873,244.179,264.098,244.179L264.098,244.179
					z"/>
			</g>
		</g>
		<g>
			<g>
				<path fill="#FFFFFF" d="M1032.174,249.179c9.673,0,9.673-15,0-15C1022.502,234.179,1022.502,249.179,1032.174,249.179
					L1032.174,249.179z"/>
			</g>
		</g>
		<g>
			<g>
				<path fill="#FFFFFF" d="M699.141,228.177c9.673,0,9.673-15,0-15S689.468,228.177,699.141,228.177L699.141,228.177z"/>
			</g>
		</g>
		<g>
			<g>
				<path fill="#FFFFFF" d="M567.127,264.18c9.673,0,9.673-15,0-15C557.454,249.18,557.454,264.18,567.127,264.18L567.127,264.18z"
					/>
			</g>
		</g>
		<g>
			<g>
				<path fill="#FFFFFF" d="M1581.229,204.174c9.673,0,9.673-15,0-15S1571.556,204.174,1581.229,204.174L1581.229,204.174z"/>
			</g>
		</g>
		<g>
			<g>
				<path fill="#FFFFFF" d="M830.398,219.617c6.449,0,6.449-10,0-10C823.949,209.617,823.949,219.617,830.398,219.617
					L830.398,219.617z"/>
			</g>
		</g>
		<g>
			<g>
				<path fill="#FFFFFF" d="M956.398,375.617c6.449,0,6.449-10,0-10C949.949,365.617,949.949,375.617,956.398,375.617
					L956.398,375.617z"/>
			</g>
		</g>
		<g>
			<g>
				<path fill="#FFFFFF" d="M1026.398,365.617c6.449,0,6.449-10,0-10S1019.949,365.617,1026.398,365.617L1026.398,365.617z"/>
			</g>
		</g>
		<g>
			<g>
				<path fill="#FFFFFF" d="M1402.398,259.617c6.449,0,6.449-10,0-10S1395.949,259.617,1402.398,259.617L1402.398,259.617z"/>
			</g>
		</g>
		<g>
			<g>
				<path fill="#FFFFFF" d="M504.398,187.617c6.449,0,6.449-10,0-10C497.949,177.617,497.949,187.617,504.398,187.617
					L504.398,187.617z"/>
			</g>
		</g>
		<g>
			<g>
				<path fill="#FFFFFF" d="M314.398,277.617c6.449,0,6.449-10,0-10C307.949,267.617,307.949,277.617,314.398,277.617
					L314.398,277.617z"/>
			</g>
		</g>
		<g>
			<g>
				<path fill="#FFFFFF" d="M956.398,286.617c12.898,0,12.898-20,0-20C943.502,266.617,943.502,286.617,956.398,286.617
					L956.398,286.617z"/>
			</g>
		</g>
		<g>
			<g>
				<path fill="#FFFFFF" d="M1318.398,340.617c12.897,0,12.897-20,0-20C1305.502,320.617,1305.502,340.617,1318.398,340.617
					L1318.398,340.617z"/>
			</g>
		</g>
		<g>
			<g>
				<path fill="#FFFFFF" d="M1318.398,340.617c12.897,0,12.897-20,0-20C1305.502,320.617,1305.502,340.617,1318.398,340.617
					L1318.398,340.617z"/>
			</g>
		</g>
		<g>
			<g>
				<path fill="#FFFFFF" d="M1282.398,298.617c12.897,0,12.897-20,0-20C1269.502,278.617,1269.502,298.617,1282.398,298.617
					L1282.398,298.617z"/>
			</g>
		</g>
	</g>
	<g>
		<g>
			<path fill="#FFFFFF" d="M117.082,425.551c12.898,0,12.898-20,0-20C104.185,405.551,104.185,425.551,117.082,425.551
				L117.082,425.551z"/>
		</g>
	</g>
	<g>
		<g>
			<path fill="#FFFFFF" d="M963.166,554.564c12.897,0,12.897-20,0-20C950.269,534.564,950.269,554.564,963.166,554.564
				L963.166,554.564z"/>
		</g>
	</g>
	<g>
		<g>
			<path fill="#FFFFFF" d="M618.133,488.557c12.897,0,12.897-20,0-20C605.235,468.557,605.235,488.557,618.133,488.557
				L618.133,488.557z"/>
		</g>
	</g>
	<g>
		<defs>
			<rect id="SVGID_85_" x="0" y="-100" width="1920" height="749.605"/>
		</defs>
		<clipPath id="SVGID_2_">
			<use xlink:href="#SVGID_85_"  overflow="visible"/>
		</clipPath>
	</g>
	<g>
		<defs>
			<rect id="SVGID_87_" x="0" y="-100" width="1920" height="749.605"/>
		</defs>
		<clipPath id="SVGID_3_">
			<use xlink:href="#SVGID_87_"  overflow="visible"/>
		</clipPath>
		<path opacity="0.3" clip-path="url(#SVGID_3_)" fill="#FFFFFF" d="M-17.934,588.885c0,0,317.238,56.287,899.693,12.947
			c0,0,885.484,52.791,1059.502,1.725l-12.002,76.744L-17.934,666.502"/>
	</g>
	<g>
		<path opacity="0.8" fill="#FFFFFF" d="M321.141,207.569l-5.102-5.137l-12.463,12.359h-5.387v-5.108l12.313-12.306l-5.117-5.116
			l-7.195,7.187v-12.194h-7.236v12.063l-7.188-7.233l-5.127,5.1l12.314,12.417v5.191h-4.773l-12.453-12.359l-5.1,5.137l7.289,7.223
			h-12.492v7.235h12.527l-7.147,7.15l5.127,5.117l12.26-12.268h4.762v4.205l-12.314,12.407l5.127,5.099l7.188-7.243v13.07h7.236
			v-13.192l7.195,7.188l5.117-5.117L298.19,226.14v-4.112h5.379l12.266,12.268l5.117-5.117l-7.147-7.15h11.922v-7.235H313.85
			L321.141,207.569z M321.141,207.569"/>
		<path opacity="0.8" fill="#FFFFFF" d="M394.986,207.569l-5.1-5.137l-12.467,12.359h-5.385v-5.108l12.313-12.306l-5.117-5.116
			l-7.195,7.187v-12.194h-7.236v12.063l-7.189-7.233l-5.125,5.1l12.314,12.417v5.191h-4.771l-12.457-12.359l-5.098,5.137
			l7.289,7.223H337.27v7.235h12.527l-7.147,7.15l5.129,5.117l12.258-12.268h4.762v4.205l-12.314,12.407l5.125,5.099l7.189-7.243
			v13.07h7.236v-13.192l7.195,7.188l5.117-5.117l-12.313-12.305v-4.112h5.379l12.266,12.268l5.117-5.117l-7.147-7.15h11.922v-7.235
			h-11.877L394.986,207.569z M394.986,207.569"/>
		<g>
			<path opacity="0.05" fill="#FFFFFF" d="M465.727,164.325c0-26.589-17.15-49.856-42.238-59.313
				c-6.637-44.614-46.897-78.342-94.861-78.342c-47.024,0-86.752,32.426-94.492,75.886c-28.197,7.676-48.408,32.418-48.408,61.305
				c0,34.277,28.244,62.055,63.504,63.688v0.002c0,0,99.133,2.927,147.357,0.195c0.746,0.226,1.533,0.353,2.35,0.353
				c7.053,0,13.855-1.055,20.246-2.994c0.039-0.012,0.09-0.024,0.125-0.034c0.195-0.057,0.375-0.126,0.563-0.188
				C446.449,216.507,465.727,192.639,465.727,164.325z"/>
			<path opacity="0.3" fill="#FFFFFF" d="M452.217,161.113c0-23.588-15.348-44.23-37.795-52.62
				c-5.94-39.58-41.967-69.502-84.887-69.502c-42.078,0-77.627,28.768-84.555,67.322c-25.232,6.81-43.318,28.759-43.318,54.387
				c0,30.408,25.275,55.051,56.824,56.5l0.002,0.003c0,0,88.707,2.597,131.861,0.173c0.666,0.2,1.371,0.313,2.102,0.313
				c6.31,0,12.398-0.936,18.117-2.656c0.035-0.01,0.078-0.02,0.113-0.029c0.176-0.052,0.336-0.112,0.502-0.167
				C434.969,207.406,452.217,186.23,452.217,161.113z"/>
			<path opacity="0.7" fill="#FFFFFF" d="M437.012,160.066c0-20.84-13.559-39.075-33.391-46.488
				c-5.248-34.967-37.074-61.402-74.994-61.402c-37.176,0-68.582,25.415-74.701,59.478c-22.291,6.014-38.27,25.407-38.27,48.048
				c0,26.866,22.328,48.636,50.201,49.917v0.001c0,0,78.371,2.295,116.498,0.153c0.588,0.177,1.209,0.276,1.855,0.276
				c5.576,0,10.953-0.827,16.006-2.348c0.031-0.009,0.068-0.018,0.1-0.026c0.154-0.044,0.297-0.099,0.445-0.147
				C421.773,200.966,437.012,182.258,437.012,160.066z"/>
		</g>
	</g>
</g>
</svg>
