<?xml version="1.0" encoding="utf-8"?>
<!-- Generator: Adobe Illustrator 17.0.0, SVG Export Plug-In . SVG Version: 6.00 Build 0)  -->
<!DOCTYPE svg PUBLIC "-//W3C//DTD SVG 1.1//EN" "http://www.w3.org/Graphics/SVG/1.1/DTD/svg11.dtd">
<svg version="1.1" id="图层_1" xmlns="http://www.w3.org/2000/svg" xmlns:xlink="http://www.w3.org/1999/xlink" x="0px" y="0px"
	 width="1919.975px" height="649.835px" viewBox="0 0 1919.975 649.835" enable-background="new 0 0 1919.975 649.835"
	 xml:space="preserve">
<g>
	<linearGradient id="SVGID_1_" gradientUnits="userSpaceOnUse" x1="960.0039" y1="652.9557" x2="960.0039" y2="-89.7417">
		<stop  offset="0" style="stop-color:#B5BDC6"/>
		<stop  offset="1" style="stop-color:#A1ACBD"/>
	</linearGradient>
	<rect x="0.004" y="-99.884" fill="url(#SVGID_1_)" width="1920" height="749.604"/>
	<rect x="1606.422" y="0" opacity="0" fill="#C7E8F9" width="313.553" height="649.835"/>
	<rect x="1292.092" y="0" opacity="0" fill="#C7E8F9" width="313.553" height="649.835"/>
	<rect x="978.539" y="0" opacity="0" fill="#C7E8F9" width="313.553" height="649.835"/>
	<rect x="664.988" y="0" opacity="0" fill="#C7E8F9" width="313.553" height="649.835"/>
	<rect x="0" y="-99.884" opacity="0.1" fill="#93A9F5" width="1920.004" height="99.884"/>
	<path fill="#FFFFFF" d="M374.162,198.434"/>
	<g>
		<g>
			<path fill="#FFFFFF" d="M541.402,172.202c3.225,0,3.225-5,0-5S538.178,172.202,541.402,172.202L541.402,172.202z"/>
		</g>
	</g>
	<g>
		<g>
			<path fill="#FFFFFF" d="M565.402,247.202c9.672,0,9.672-15,0-15C555.729,232.202,555.729,247.202,565.402,247.202
				L565.402,247.202z"/>
		</g>
	</g>
	<g>
		<g>
			<path opacity="0.5" fill="#FFFFFF" d="M312.668,107.614c18.891-0.348,34.15-15.788,34.15-34.743
				c0-19.187-15.607-34.776-34.777-34.776c-19.053,0-34.561,15.407-34.76,34.398h-0.033v5.871h14.236v-5.492h0.053
				c0-11.3,9.188-20.491,20.488-20.491c11.301,0,20.488,9.191,20.488,20.491s-9.188,20.487-20.473,20.487h-94.067v14.288h94.693
				V107.614L312.668,107.614z M312.668,107.614"/>
			<path fill="#FFFFFF" d="M404.59,48.342c-24.449,0-44.344,19.894-44.344,44.327v14.978h14.27V92.669h0.031
				c0-16.564,13.463-30.045,30.025-30.045c16.565,0,30.059,13.48,30.059,30.045c0,16.561-13.494,30.04-30.059,30.04H217.975v14.284
				h187.555v-0.034c24.004-0.491,43.404-20.157,43.404-44.29C448.918,68.236,429.039,48.342,404.59,48.342L404.59,48.342z
				 M404.59,48.342"/>
			<path opacity="0.7" fill="#FFFFFF" d="M391.215,152.65v-0.049h-1.227c-0.545-0.034-1.121-0.102-1.715-0.102v0.102H217.975v14.269
				H389.15c13.889,0.479,25.072,11.846,25.072,25.838c0,14.298-11.629,25.929-25.934,25.929c-14.27,0-25.9-11.631-25.9-25.929
				V182.36H348.07v10.348l0,0c0,22.185,18.051,40.217,40.219,40.217c22.207,0,40.236-18.047,40.236-40.217
				C428.525,171.506,412.031,154.135,391.215,152.65L391.215,152.65z M391.215,152.65"/>
		</g>
		<g>
			<path opacity="0.3" fill="#FFFFFF" d="M176.82,222.952c-10.516,0-10.516,16.307,0,16.307
				C187.334,239.259,187.334,222.952,176.82,222.952"/>
			<path opacity="0.7" fill="#FFFFFF" d="M261.611,179.47c-10.516,0-10.516,16.306,0,16.306
				C272.125,195.775,272.125,179.47,261.611,179.47"/>
			<path fill="#FFFFFF" d="M189.865,126.203c10.516,0,10.516-16.306,0-16.306C179.35,109.897,179.35,126.203,189.865,126.203z"/>
		</g>
	</g>
	<g>
		<g>
			<path fill="#FFFFFF" d="M969.402,223.202c9.672,0,9.672-15,0-15C959.729,208.202,959.729,223.202,969.402,223.202
				L969.402,223.202z"/>
		</g>
	</g>
	<g>
		<g>
			<path fill="#FFFFFF" d="M1267.402,341.202c9.672,0,9.672-15,0-15C1257.729,326.202,1257.729,341.202,1267.402,341.202
				L1267.402,341.202z"/>
		</g>
	</g>
	<g>
		<g>
			<path fill="#FFFFFF" d="M1353.402,261.202c9.672,0,9.672-15,0-15C1343.729,246.202,1343.729,261.202,1353.402,261.202
				L1353.402,261.202z"/>
		</g>
	</g>
	<g>
		<g>
			<path opacity="0.5" fill="#FFFFFF" d="M312.668,105.931c18.891-0.348,34.15-15.788,34.15-34.743
				c0-19.186-15.607-34.776-34.777-34.776c-19.053,0-34.561,15.407-34.76,34.397h-0.033v5.871h14.236v-5.492h0.053
				c0-11.3,9.188-20.491,20.488-20.491c11.301,0,20.488,9.191,20.488,20.491s-9.188,20.487-20.473,20.487h-94.067v14.288h94.693
				V105.931L312.668,105.931z M312.668,105.931"/>
			<path fill="#FFFFFF" d="M404.59,46.658c-24.449,0-44.344,19.895-44.344,44.327v14.978h14.27V90.985h0.031
				c0-16.564,13.463-30.045,30.025-30.045c16.565,0,30.059,13.481,30.059,30.045c0,16.561-13.494,30.04-30.059,30.04H217.975v14.284
				h187.555v-0.034c24.004-0.491,43.404-20.157,43.404-44.29C448.918,66.553,429.039,46.658,404.59,46.658L404.59,46.658z
				 M404.59,46.658"/>
			<path opacity="0.7" fill="#FFFFFF" d="M391.215,150.967v-0.049h-1.227c-0.545-0.034-1.121-0.102-1.715-0.102v0.102H217.975
				v14.269H389.15c13.889,0.479,25.072,11.846,25.072,25.838c0,14.298-11.629,25.929-25.934,25.929
				c-14.27,0-25.9-11.631-25.9-25.929v-10.348H348.07v10.348l0,0c0,22.185,18.051,40.217,40.219,40.217
				c22.207,0,40.236-18.047,40.236-40.217C428.525,169.822,412.031,152.451,391.215,150.967L391.215,150.967z M391.215,150.967"/>
		</g>
		<g>
			<path opacity="0.3" fill="#FFFFFF" d="M176.82,221.269c-10.516,0-10.516,16.307,0,16.307
				C187.334,237.575,187.334,221.269,176.82,221.269"/>
			<path opacity="0.7" fill="#FFFFFF" d="M261.611,177.786c-10.516,0-10.516,16.306,0,16.306
				C272.125,194.092,272.125,177.786,261.611,177.786"/>
			<path fill="#FFFFFF" d="M189.865,124.52c10.516,0,10.516-16.306,0-16.306C179.35,108.214,179.35,124.52,189.865,124.52z"/>
		</g>
	</g>
</g>
<g>
	<g>
		<defs>
			<rect id="SVGID_91_" x="4.842" y="-885.338" width="1920" height="749.604"/>
		</defs>
		<clipPath id="SVGID_2_">
			<use xlink:href="#SVGID_91_"  overflow="visible"/>
		</clipPath>
		<g opacity="0.2" clip-path="url(#SVGID_2_)">
			
				<image overflow="visible" width="2950" height="2261" xlink:href="1ED42E5.png"  transform="matrix(0.24 0 0 0.24 214.7325 -375.7232)">
			</image>
		</g>
	</g>
</g>
</svg>
