<?xml version="1.0" encoding="utf-8"?>
<!-- Generator: Adobe Illustrator 17.0.0, SVG Export Plug-In . SVG Version: 6.00 Build 0)  -->
<!DOCTYPE svg PUBLIC "-//W3C//DTD SVG 1.1//EN" "http://www.w3.org/Graphics/SVG/1.1/DTD/svg11.dtd">
<svg version="1.1" id="图层_1" xmlns="http://www.w3.org/2000/svg" xmlns:xlink="http://www.w3.org/1999/xlink" x="0px" y="0px"
	 width="140px" height="140px" viewBox="0 0 140 140" enable-background="new 0 0 140 140" xml:space="preserve">
<g>
	<path fill="#FFFFFF" d="M109.377,44.387c0.523-8.091-1.844-15.496-6.936-21.599C95.593,14.594,84.16,9.502,72.58,9.502
		c-17.615,0-32.846,12.043-36.627,28.457C21.467,38.311,9.785,49.848,9.785,63.999c0,13.816,11.426,25.32,25.586,25.955v0.033h1.225
		v-6.693h-1.225c-10.508-0.627-18.935-9.112-18.935-19.295c0-10.688,9.06-19.389,20.187-19.389c0.599,0,1.199,0.035,1.781,0.085
		l3.146,0.275l0.445-3.12c2.074-14.648,15.232-25.688,30.592-25.688c9.65,0,19.148,4.175,24.754,10.895
		c4.654,5.571,6.377,12.582,4.971,20.288l-0.873,4.792l4.773-0.926c0.652-0.129,1.355-0.188,2.076-0.188
		c6.058,0,14.846,4.74,14.846,13.319c0,10.277-8.359,18.592-18.936,18.995v6.659c14.35-0.479,25.586-11.726,25.586-25.662
		C129.785,52.796,119.422,44.92,109.377,44.387L109.377,44.387z M109.377,44.387"/>
	<path fill="#FFFFFF" d="M89.687,106.898l-2.375-2.393l-5.809,5.759h-2.51v-2.38l5.738-5.733l-2.385-2.384l-3.353,3.348v-5.681
		h-3.371v5.62l-3.348-3.37l-2.389,2.376l5.736,5.785v2.419H73.4l-5.803-5.759l-2.376,2.393l3.396,3.365h-5.82v3.371h5.838
		l-3.33,3.331l2.389,2.385l5.711-5.716h2.219v1.958l-5.736,5.781l2.389,2.376l3.348-3.375v6.09h3.371v-6.147l3.353,3.35l2.385-2.385
		l-5.738-5.733v-1.915H81.5l5.717,5.716l2.385-2.385l-3.332-3.331h5.557v-3.371h-5.535L89.687,106.898z M101.742,94.583"/>
	<circle fill="#FFFFFF" cx="62.242" cy="87.013" r="4.5"/>
	<circle fill="#FFFFFF" cx="84.758" cy="80.013" r="4.5"/>
	<circle fill="#FFFFFF" cx="62.242" cy="132.013" r="3"/>
</g>
</svg>
