<?xml version="1.0" encoding="utf-8"?>
<!-- Generator: Adobe Illustrator 17.0.0, SVG Export Plug-In . SVG Version: 6.00 Build 0)  -->
<!DOCTYPE svg PUBLIC "-//W3C//DTD SVG 1.1//EN" "http://www.w3.org/Graphics/SVG/1.1/DTD/svg11.dtd">
<svg version="1.1" id="图层_1" xmlns="http://www.w3.org/2000/svg" xmlns:xlink="http://www.w3.org/1999/xlink" x="0px" y="0px"
	 width="140px" height="140px" viewBox="0 0 140 140" enable-background="new 0 0 140 140" xml:space="preserve">
<g>
	<path fill="#FFFFFF" d="M70.669,36.654c-6.105,0-11.907-0.753-16.336-2.122c-2.436-0.753-4.422-1.683-5.903-2.765
		c-2.946-2.153-3.566-4.609-3.566-6.291c0-1.682,0.619-4.138,3.566-6.29c1.482-1.082,3.468-2.013,5.903-2.765
		c4.429-1.369,10.23-2.123,16.336-2.123s11.908,0.754,16.337,2.123c2.435,0.752,4.421,1.682,5.902,2.765
		c2.946,2.152,3.565,4.608,3.565,6.29c0,1.682-0.619,4.138-3.565,6.291c-1.481,1.082-3.468,2.012-5.902,2.765
		C82.578,35.901,76.775,36.654,70.669,36.654L70.669,36.654z M56.474,25.476c0.674,0.23,1.488,0.468,2.455,0.695
		c3.316,0.779,7.486,1.208,11.74,1.208c4.255,0,8.424-0.429,11.74-1.208c0.969-0.227,1.781-0.465,2.457-0.695
		c-0.675-0.231-1.488-0.468-2.457-0.695c-3.316-0.779-7.485-1.208-11.74-1.208c-4.254,0-8.424,0.429-11.74,1.208
		C57.962,25.008,57.148,25.246,56.474,25.476L56.474,25.476z M56.474,25.476"/>
	<path fill="#FFFFFF" d="M65.935,118.726c-6.08,0-11.854-0.705-16.261-1.984c-2.419-0.703-4.394-1.572-5.868-2.584
		c-3.038-2.086-3.676-4.531-3.676-6.216c0-2.561,2.076-4.637,4.637-4.637c2.102,0,3.875,1.397,4.445,3.312
		c0.65,0.397,2.182,1.092,4.973,1.704c3.325,0.729,7.498,1.131,11.75,1.131c5.256,0,9.012-0.186,11.819-0.586
		c3.083-0.438,4.307-1.035,4.726-1.307c0.195-2.382,2.189-4.254,4.623-4.254c2.561,0,4.637,2.077,4.637,4.637
		c0,2.708-1.232,5.148-3.471,6.872c-1.573,1.211-3.646,2.099-6.336,2.712C78.246,118.367,73.46,118.726,65.935,118.726
		L65.935,118.726z M65.935,118.726"/>
	<path fill="#FFFFFF" d="M68.476,60.05c-9.615,0-18.723-1.377-25.644-3.878c-3.652-1.32-6.591-2.917-8.73-4.745
		c-3.554-3.037-4.3-6.197-4.3-8.313c0-3.036,1.478-7.428,8.528-11.106c2.271-1.185,5.071-0.304,6.255,1.967
		c1.186,2.271,0.305,5.071-1.965,6.256c-2.752,1.436-3.484,2.618-3.543,2.883c0.092,0.443,1.658,2.544,7.493,4.541
		c5.876,2.012,13.655,3.121,21.904,3.121c8.25,0,16.029-1.109,21.905-3.121c5.835-1.997,7.4-4.098,7.492-4.541
		c-0.057-0.265-0.789-1.447-3.541-2.883c-2.27-1.185-3.151-3.986-1.966-6.256c1.185-2.271,3.986-3.151,6.257-1.966
		c7.047,3.677,8.526,8.069,8.526,11.105c0,2.116-0.746,5.276-4.3,8.313c-2.141,1.828-5.077,3.424-8.73,4.745
		C87.198,58.672,78.091,60.05,68.476,60.05L68.476,60.05z M68.476,60.05"/>
	<path fill="#FFFFFF" d="M65.935,100.905c-10.785,0-20.985-1.234-28.72-3.476c-4.037-1.17-7.282-2.584-9.644-4.202
		c-4.185-2.868-5.064-6.043-5.064-8.201c0-2.561,2.076-4.638,4.638-4.638c2.443,0,4.444,1.89,4.624,4.287
		c0.385,0.468,2.424,2.484,9.981,4.372c6.673,1.667,15.262,2.584,24.185,2.584c8.922,0,17.511-0.917,24.184-2.584
		c7.558-1.888,9.596-3.904,9.982-4.372c0.179-2.397,2.181-4.287,4.623-4.287c2.562,0,4.638,2.077,4.638,4.638
		c0,2.158-0.879,5.333-5.064,8.201c-2.362,1.618-5.607,3.032-9.645,4.202C86.919,99.671,76.72,100.905,65.935,100.905
		L65.935,100.905z M65.935,100.905"/>
	<path fill="#FFFFFF" d="M68.439,79.542c-14.838,0-28.852-1.873-39.459-5.272c-5.441-1.744-9.787-3.831-12.915-6.202
		C13.298,65.972,10,62.464,10,57.66c0-4.804,3.298-8.312,6.065-10.409c2.041-1.547,4.949-1.146,6.496,0.894
		c1.548,2.042,1.146,4.95-0.895,6.497c-1.763,1.336-2.392,2.435-2.392,3.017c0,1.454,3.403,4.851,12.536,7.778
		c9.717,3.115,22.726,4.83,36.628,4.83c13.904,0,26.912-1.715,36.629-4.83c9.133-2.927,12.536-6.324,12.536-7.778
		c0-0.779-1.055-2.324-4.026-4.115c-2.193-1.322-2.9-4.172-1.578-6.365c1.322-2.192,4.172-2.899,6.365-1.578
		c3.884,2.341,8.514,6.333,8.514,12.059c0,4.804-3.299,8.311-6.064,10.408c-3.129,2.371-7.475,4.458-12.916,6.201
		C97.291,77.669,83.278,79.542,68.439,79.542L68.439,79.542z M68.439,79.542"/>
	<path fill="#FFFFFF" d="M34.904,120.564c0,1.346,0.554,2.682,1.505,3.632c0.95,0.951,2.287,1.505,3.632,1.505
		s2.682-0.554,3.632-1.505c0.951-0.95,1.505-2.286,1.505-3.632c0-1.345-0.554-2.681-1.505-3.632
		c-0.95-0.951-2.287-1.505-3.632-1.505s-2.682,0.554-3.632,1.505C35.458,117.883,34.904,119.219,34.904,120.564L34.904,120.564z
		 M34.904,120.564"/>
	<path fill="#FFFFFF" d="M92.239,120.564c0,1.346,0.554,2.682,1.505,3.632c0.95,0.951,2.287,1.505,3.632,1.505
		c1.345,0,2.681-0.554,3.632-1.505c0.951-0.95,1.505-2.286,1.505-3.632c0-1.345-0.554-2.681-1.505-3.632
		c-0.951-0.951-2.287-1.505-3.632-1.505c-1.345,0-2.682,0.554-3.632,1.505C92.792,117.883,92.239,119.219,92.239,120.564
		L92.239,120.564z M92.239,120.564"/>
	<path fill="#FFFFFF" d="M10.5,94.642c0,1.345,0.553,2.681,1.504,3.632c0.951,0.951,2.287,1.505,3.632,1.505
		s2.681-0.554,3.632-1.505c0.951-0.951,1.505-2.287,1.505-3.632c0-1.345-0.554-2.682-1.505-3.632
		c-0.951-0.951-2.287-1.505-3.632-1.505s-2.681,0.554-3.632,1.505C11.052,91.96,10.5,93.297,10.5,94.642L10.5,94.642z M10.5,94.642"
		/>
	<path fill="#FFFFFF" d="M119.728,84.369c0,1.345,0.552,2.681,1.504,3.632c0.951,0.951,2.287,1.504,3.632,1.504
		c1.345,0,2.682-0.553,3.632-1.504c0.951-0.951,1.505-2.288,1.505-3.632c0-1.344-0.554-2.682-1.505-3.632
		c-0.95-0.951-2.287-1.504-3.632-1.504c-1.344,0-2.68,0.553-3.632,1.504C120.281,81.687,119.728,83.024,119.728,84.369
		L119.728,84.369z M119.728,84.369"/>
</g>
</svg>
