<?xml version="1.0" encoding="utf-8"?>
<!-- Generator: Adobe Illustrator 17.0.0, SVG Export Plug-In . SVG Version: 6.00 Build 0)  -->
<!DOCTYPE svg PUBLIC "-//W3C//DTD SVG 1.1//EN" "http://www.w3.org/Graphics/SVG/1.1/DTD/svg11.dtd">
<svg version="1.1" id="图层_1" xmlns="http://www.w3.org/2000/svg" xmlns:xlink="http://www.w3.org/1999/xlink" x="0px" y="0px"
	 width="140px" height="140px" viewBox="0 0 140 140" enable-background="new 0 0 140 140" xml:space="preserve">
<g>
	<path fill="#FFFFFF" d="M101.805,107.15c15.761,0,28.624-12.083,28.624-27.097c0-12.07-8.392-22.53-20.357-25.943l2.529,3.071
		c-1.724-20.1-19.538-35.616-40.929-35.616c-21.055,0-38.697,15.038-40.858,34.749l2.86-3.067
		c-13.371,2.408-23.245,13.505-23.245,26.609c0,15.014,12.863,27.094,28.625,27.094c1.933,0,3.502-1.57,3.502-3.505
		c0-1.936-1.569-3.503-3.502-3.503c-11.985,0-21.619-9.044-21.619-20.086c0-9.617,7.362-17.89,17.48-19.712
		c1.529-0.274,2.692-1.524,2.864-3.065c1.767-16.082,16.343-28.506,33.894-28.506c17.827,0,32.542,12.813,33.948,29.208
		c0.125,1.448,1.13,2.67,2.529,3.07c9.035,2.575,15.272,10.351,15.272,19.202c0,11.042-9.634,20.089-21.617,20.089
		c-1.934,0-3.503,1.567-3.503,3.503C98.302,105.58,99.871,107.15,101.805,107.15L101.805,107.15L101.805,107.15z M102.278,100.142
		h-0.474c-1.934,0-3.503,1.567-3.503,3.503c0,1.935,1.569,3.505,3.503,3.505h0.474c1.936,0,3.502-1.57,3.502-3.505
		C105.78,101.709,104.214,100.142,102.278,100.142L102.278,100.142L102.278,100.142z M63.447,87.051l-20.204,25.716
		c-1.195,1.521-0.931,3.725,0.591,4.919c1.523,1.197,3.724,0.932,4.922-0.591L68.959,91.38c1.194-1.522,0.932-3.725-0.59-4.921
		C66.846,85.264,64.644,85.53,63.447,87.051L63.447,87.051L63.447,87.051z M78.827,87.051l-20.202,25.716
		c-1.196,1.521-0.932,3.725,0.588,4.919c1.521,1.197,3.727,0.932,4.921-0.591L84.338,91.38c1.194-1.522,0.932-3.725-0.592-4.921
		C82.227,85.264,80.023,85.53,78.827,87.051L78.827,87.051L78.827,87.051z M93.952,87.051L73.75,112.767
		c-1.196,1.521-0.932,3.725,0.588,4.919c1.521,1.197,3.727,0.932,4.921-0.591L99.463,91.38c1.194-1.522,0.932-3.725-0.592-4.921
		C97.352,85.264,95.148,85.53,93.952,87.051L93.952,87.051L93.952,87.051z M88.327,87.051"/>
</g>
</svg>
