<?xml version="1.0" encoding="utf-8"?>
<!-- Generator: Adobe Illustrator 17.0.0, SVG Export Plug-In . SVG Version: 6.00 Build 0)  -->
<!DOCTYPE svg PUBLIC "-//W3C//DTD SVG 1.1//EN" "http://www.w3.org/Graphics/SVG/1.1/DTD/svg11.dtd">
<svg version="1.1" id="图层_1" xmlns="http://www.w3.org/2000/svg" xmlns:xlink="http://www.w3.org/1999/xlink" x="0px" y="0px"
	 width="140px" height="140px" viewBox="0 0 140 140" enable-background="new 0 0 140 140" xml:space="preserve">
<g>
	<path fill="#FFFFFF" d="M114.054,55.233c0.523-8.091-1.843-15.496-6.935-21.599c-6.849-8.194-18.282-13.286-29.862-13.286
		c-17.615,0-32.846,12.043-36.627,28.457c-14.485,0.352-26.168,11.889-26.168,26.04c0,13.816,11.426,25.32,25.586,25.955v0.033
		h1.225V94.14h-1.225c-10.508-0.626-18.936-9.112-18.936-19.294c0-10.688,9.061-19.389,20.188-19.389c0.6,0,1.199,0.035,1.782,0.085
		l3.146,0.275l0.446-3.121c2.074-14.648,15.231-25.688,30.591-25.688c9.651,0,19.148,4.175,24.754,10.895
		c4.654,5.571,6.378,12.582,4.972,20.288l-0.874,4.792l4.773-0.926c0.652-0.128,1.355-0.188,2.076-0.188
		c6.06,0,14.846,4.74,14.846,13.32c0,10.277-8.358,18.591-18.936,18.995v6.66c14.35-0.48,25.586-11.726,25.586-25.662
		C134.462,63.642,124.099,55.766,114.054,55.233L114.054,55.233z M114.054,55.233"/>
	<path fill="#FFFFFF" d="M89.023,92.44l-2.376-2.394l-5.808,5.759h-2.51v-2.38l5.737-5.733l-2.384-2.384l-3.354,3.348v-5.681h-3.371
		v5.621l-3.348-3.371l-2.389,2.376l5.737,5.785v2.42h-2.223l-5.803-5.759l-2.376,2.394l3.396,3.366h-5.82v3.371h5.838l-3.331,3.331
		l2.39,2.385l5.711-5.716h2.219v1.959l-5.737,5.781l2.389,2.376l3.348-3.374v6.09h3.371v-6.146l3.354,3.349l2.384-2.384
		l-5.737-5.734v-1.915h2.506l5.717,5.716l2.385-2.385l-3.332-3.331h5.556v-3.371h-5.534L89.023,92.44z M75.747,121.347l-2.376-2.394
		l-5.808,5.759h-2.51v-2.38l5.737-5.733l-2.384-2.384l-3.354,3.348v-5.681h-3.371v5.621l-3.349-3.371l-2.388,2.376l5.737,5.785
		v2.419h-2.224l-5.802-5.759l-2.376,2.394l3.396,3.366h-5.82v3.371h5.838l-3.331,3.331l2.39,2.385l5.711-5.716h2.219v1.959
		l-5.737,5.781l2.388,2.376l3.349-3.374v6.09h3.371v-6.146l3.354,3.349l2.384-2.384l-5.737-5.734v-1.915h2.506l5.717,5.716
		l2.385-2.385l-3.332-3.331h5.556v-3.371h-5.534L75.747,121.347z M98.892,80.126"/>
</g>
</svg>
