<?xml version="1.0" encoding="utf-8"?>
<!-- Generator: Adobe Illustrator 17.0.0, SVG Export Plug-In . SVG Version: 6.00 Build 0)  -->
<!DOCTYPE svg PUBLIC "-//W3C//DTD SVG 1.1//EN" "http://www.w3.org/Graphics/SVG/1.1/DTD/svg11.dtd">
<svg version="1.1" id="图层_1" xmlns="http://www.w3.org/2000/svg" xmlns:xlink="http://www.w3.org/1999/xlink" x="0px" y="0px"
	 width="1919.969px" height="649.721px" viewBox="0 0 1919.969 649.721" enable-background="new 0 0 1919.969 649.721"
	 xml:space="preserve">
<g>
	<g>
		<g>
			<defs>
				<rect id="SVGID_68_" x="1968.335" y="-907.493" width="1919.191" height="749.606"/>
			</defs>
			<clipPath id="SVGID_1_">
				<use xlink:href="#SVGID_68_"  overflow="visible"/>
			</clipPath>
			<g opacity="0.5" clip-path="url(#SVGID_1_)">
				<g>
					<g>
						<path fill="#D39C42" d="M1953.966-258.792c0,0,449.976,94,609.908,22c159.934-72.001,475.801-372,1217.488-22
							s410.412-34,483.088,74l28.697,159.736c0,0-57.977,92.264-159.934,78.264s-1653.304-94-1653.304-94l-467.804-50l-243.896-58"
							/>
					</g>
				</g>
			</g>
		</g>
	</g>
</g>
<g>
	<g>
		<rect x="978.533" y="-0.115" opacity="0" fill="#C7E8F9" width="313.553" height="649.836"/>
		<linearGradient id="SVGID_2_" gradientUnits="userSpaceOnUse" x1="960" y1="674.8027" x2="960" y2="-102.4932">
			<stop  offset="0" style="stop-color:#79818E"/>
			<stop  offset="1" style="stop-color:#647081"/>
		</linearGradient>
		<rect x="0" y="-100" fill="url(#SVGID_2_)" width="1920" height="749.606"/>
		<rect x="1606.416" y="-0.115" opacity="0" fill="#C7E8F9" width="313.553" height="649.836"/>
		<rect x="1292.088" y="-0.115" opacity="0" fill="#C7E8F9" width="313.553" height="649.836"/>
		<rect x="664.982" y="-0.115" opacity="0" fill="#C7E8F9" width="313.553" height="649.836"/>
		<g opacity="0.2">
			<g>
				<linearGradient id="SVGID_3_" gradientUnits="userSpaceOnUse" x1="130.835" y1="455.1084" x2="130.835" y2="407.3829">
					<stop  offset="0" style="stop-color:#FFFFFF"/>
					<stop  offset="1" style="stop-color:#5A6A78"/>
				</linearGradient>
				<path fill="url(#SVGID_3_)" d="M133.467,453.295c0,1.453-1.178,2.633-2.631,2.633l0,0c-1.455,0-2.633-1.18-2.633-2.633v-56.617
					c0-1.453,1.178-2.633,2.633-2.633l0,0c1.453,0,2.631,1.18,2.631,2.633V453.295z"/>
			</g>
			<g>
				<linearGradient id="SVGID_4_" gradientUnits="userSpaceOnUse" x1="620.9083" y1="181.3057" x2="620.9083" y2="94.1841">
					<stop  offset="0" style="stop-color:#FFFFFF"/>
					<stop  offset="1" style="stop-color:#5A6A78"/>
				</linearGradient>
				<path fill="url(#SVGID_4_)" d="M624.469,178.854c0,1.967-1.594,3.561-3.561,3.561l0,0c-1.967,0-3.561-1.594-3.561-3.561v-76.596
					c0-1.967,1.594-3.56,3.561-3.56l0,0c1.967,0,3.561,1.594,3.561,3.56V178.854z"/>
				<linearGradient id="SVGID_5_" gradientUnits="userSpaceOnUse" x1="808.5206" y1="293.1792" x2="808.5206" y2="222.8526">
					<stop  offset="0" style="stop-color:#FFFFFF"/>
					<stop  offset="1" style="stop-color:#5A6A78"/>
				</linearGradient>
				<path fill="url(#SVGID_5_)" d="M811.688,291.24c0,1.555-1.418,2.814-3.168,2.814l0,0c-1.748,0-3.166-1.26-3.166-2.814v-60.514
					c0-1.553,1.418-2.813,3.166-2.813l0,0c1.75,0,3.168,1.26,3.168,2.813V291.24z"/>
				<linearGradient id="SVGID_6_" gradientUnits="userSpaceOnUse" x1="506.1378" y1="357.8251" x2="506.1378" y2="291.549">
					<stop  offset="0" style="stop-color:#FFFFFF"/>
					<stop  offset="1" style="stop-color:#5A6A78"/>
				</linearGradient>
				<path fill="url(#SVGID_6_)" d="M508.77,356.012c0,1.455-1.178,2.633-2.633,2.633l0,0c-1.453,0-2.631-1.178-2.631-2.633v-56.617
					c0-1.453,1.178-2.631,2.631-2.631l0,0c1.455,0,2.633,1.178,2.633,2.631V356.012z"/>
			</g>
			<g>
				<linearGradient id="SVGID_7_" gradientUnits="userSpaceOnUse" x1="1240.1162" y1="399.2983" x2="1240.1162" y2="328.8812">
					<stop  offset="0" style="stop-color:#FFFFFF"/>
					<stop  offset="1" style="stop-color:#5A6A78"/>
				</linearGradient>
				<path fill="url(#SVGID_7_)" d="M1243.283,397.361c0,1.553-1.418,2.813-3.166,2.813l0,0c-1.75,0-3.168-1.26-3.168-2.813v-60.514
					c0-1.555,1.418-2.813,3.168-2.813l0,0c1.748,0,3.166,1.258,3.166,2.813V397.361z"/>
				<linearGradient id="SVGID_8_" gradientUnits="userSpaceOnUse" x1="937.7335" y1="463.9463" x2="937.7335" y2="392.8665">
					<stop  offset="0" style="stop-color:#FFFFFF"/>
					<stop  offset="1" style="stop-color:#5A6A78"/>
				</linearGradient>
				<path fill="url(#SVGID_8_)" d="M940.365,462.133c0,1.453-1.178,2.633-2.631,2.633l0,0c-1.455,0-2.633-1.18-2.633-2.633v-56.617
					c0-1.453,1.178-2.633,2.633-2.633l0,0c1.453,0,2.631,1.18,2.631,2.633V462.133z"/>
			</g>
			<g>
				<linearGradient id="SVGID_9_" gradientUnits="userSpaceOnUse" x1="1472.1759" y1="249.0889" x2="1472.1759" y2="160.2151">
					<stop  offset="0" style="stop-color:#FFFFFF"/>
					<stop  offset="1" style="stop-color:#5A6A78"/>
				</linearGradient>
				<path fill="url(#SVGID_9_)" d="M1475.736,246.637c0,1.967-1.594,3.561-3.561,3.561l0,0c-1.967,0-3.56-1.594-3.56-3.561v-76.596
					c0-1.967,1.594-3.561,3.56-3.561l0,0c1.967,0,3.561,1.594,3.561,3.561V246.637z"/>
				<linearGradient id="SVGID_10_" gradientUnits="userSpaceOnUse" x1="1659.7881" y1="360.9624" x2="1659.7881" y2="287.5351">
					<stop  offset="0" style="stop-color:#FFFFFF"/>
					<stop  offset="1" style="stop-color:#5A6A78"/>
				</linearGradient>
				<path fill="url(#SVGID_10_)" d="M1662.955,359.023c0,1.555-1.418,2.814-3.168,2.814l0,0c-1.748,0-3.166-1.26-3.166-2.814V298.51
					c0-1.553,1.418-2.813,3.166-2.813l0,0c1.75,0,3.168,1.26,3.168,2.813V359.023z"/>
				<linearGradient id="SVGID_11_" gradientUnits="userSpaceOnUse" x1="1357.4053" y1="425.6083" x2="1357.4053" y2="359.524">
					<stop  offset="0" style="stop-color:#FFFFFF"/>
					<stop  offset="1" style="stop-color:#5A6A78"/>
				</linearGradient>
				<path fill="url(#SVGID_11_)" d="M1360.037,423.795c0,1.455-1.178,2.633-2.633,2.633l0,0c-1.453,0-2.631-1.178-2.631-2.633
					v-56.617c0-1.453,1.178-2.631,2.631-2.631l0,0c1.455,0,2.633,1.178,2.633,2.631V423.795z"/>
			</g>
		</g>
		<g opacity="0.2">
			<g>
				<linearGradient id="SVGID_12_" gradientUnits="userSpaceOnUse" x1="232.9268" y1="423.5733" x2="232.9268" y2="375.8478">
					<stop  offset="0" style="stop-color:#FFFFFF"/>
					<stop  offset="1" style="stop-color:#5A6A78"/>
				</linearGradient>
				<path fill="url(#SVGID_12_)" d="M235.559,421.76c0,1.453-1.178,2.633-2.633,2.633l0,0c-1.453,0-2.631-1.18-2.631-2.633v-56.617
					c0-1.453,1.178-2.633,2.631-2.633l0,0c1.455,0,2.633,1.18,2.633,2.633V421.76z"/>
			</g>
			<g>
				<linearGradient id="SVGID_13_" gradientUnits="userSpaceOnUse" x1="722.998" y1="149.7705" x2="722.998" y2="63.8796">
					<stop  offset="0" style="stop-color:#FFFFFF"/>
					<stop  offset="1" style="stop-color:#5A6A78"/>
				</linearGradient>
				<path fill="url(#SVGID_13_)" d="M726.559,147.318c0,1.967-1.594,3.561-3.56,3.561l0,0c-1.967,0-3.561-1.594-3.561-3.561V70.723
					c0-1.965,1.594-3.561,3.561-3.561l0,0c1.967,0,3.56,1.596,3.56,3.561V147.318z"/>
				<linearGradient id="SVGID_14_" gradientUnits="userSpaceOnUse" x1="910.6104" y1="261.644" x2="910.6104" y2="193.3532">
					<stop  offset="0" style="stop-color:#FFFFFF"/>
					<stop  offset="1" style="stop-color:#5A6A78"/>
				</linearGradient>
				<path fill="url(#SVGID_14_)" d="M913.777,259.707c0,1.553-1.418,2.813-3.166,2.813l0,0c-1.75,0-3.168-1.26-3.168-2.813v-60.514
					c0-1.555,1.418-2.814,3.168-2.814l0,0c1.748,0,3.166,1.26,3.166,2.814V259.707z"/>
				<linearGradient id="SVGID_15_" gradientUnits="userSpaceOnUse" x1="608.2275" y1="326.29" x2="608.2275" y2="262.8757">
					<stop  offset="0" style="stop-color:#FFFFFF"/>
					<stop  offset="1" style="stop-color:#5A6A78"/>
				</linearGradient>
				<path fill="url(#SVGID_15_)" d="M610.859,324.478c0,1.453-1.178,2.631-2.631,2.631l0,0c-1.455,0-2.633-1.178-2.633-2.631
					v-56.617c0-1.455,1.178-2.633,2.633-2.633l0,0c1.453,0,2.631,1.178,2.631,2.633V324.478z"/>
			</g>
			<g>
				<linearGradient id="SVGID_16_" gradientUnits="userSpaceOnUse" x1="1761.8781" y1="329.427" x2="1761.8781" y2="278.4178">
					<stop  offset="0" style="stop-color:#FFFFFF"/>
					<stop  offset="1" style="stop-color:#5A6A78"/>
				</linearGradient>
				<path fill="url(#SVGID_16_)" d="M1765.045,327.49c0,1.553-1.418,2.813-3.166,2.813l0,0c-1.75,0-3.168-1.26-3.168-2.813v-60.514
					c0-1.555,1.418-2.814,3.168-2.814l0,0c1.748,0,3.166,1.26,3.166,2.814V327.49z"/>
				<linearGradient id="SVGID_17_" gradientUnits="userSpaceOnUse" x1="1459.4951" y1="394.0733" x2="1459.4951" y2="346.3493">
					<stop  offset="0" style="stop-color:#FFFFFF"/>
					<stop  offset="1" style="stop-color:#5A6A78"/>
				</linearGradient>
				<path fill="url(#SVGID_17_)" d="M1462.127,392.262c0,1.453-1.178,2.631-2.631,2.631l0,0c-1.455,0-2.633-1.178-2.633-2.631
					v-56.617c0-1.455,1.178-2.633,2.633-2.633l0,0c1.453,0,2.631,1.178,2.631,2.633V392.262z"/>
			</g>
		</g>
		<g>
			<g>
				<path opacity="0.05" fill="#FFFFFF" d="M465.727,190.527c0-26.588-17.15-49.857-42.238-59.314
					c-6.637-44.613-46.896-78.342-94.861-78.342c-47.023,0-86.752,32.426-94.492,75.887c-28.197,7.676-48.408,32.418-48.408,61.305
					c0,34.277,28.244,62.055,63.502,63.689l0.002,0.002c0,0,99.133,2.926,147.357,0.195c0.746,0.225,1.533,0.352,2.35,0.352
					c7.053,0,13.855-1.055,20.246-2.994c0.039-0.012,0.088-0.021,0.125-0.033c0.195-0.059,0.375-0.127,0.563-0.189
					C446.451,242.709,465.727,218.842,465.727,190.527z"/>
				<path opacity="0.3" fill="#FFFFFF" d="M452.217,187.314c0-23.588-15.348-44.23-37.797-52.619
					c-5.938-39.58-41.963-69.502-84.885-69.502c-42.078,0-77.627,28.768-84.555,67.322c-25.232,6.811-43.318,28.76-43.318,54.387
					c0,30.41,25.273,55.051,56.824,56.502l0.002,0.002c0,0,88.707,2.596,131.861,0.172c0.668,0.201,1.371,0.313,2.102,0.313
					c6.313,0,12.398-0.936,18.117-2.656c0.035-0.01,0.078-0.02,0.113-0.029c0.176-0.051,0.336-0.111,0.502-0.166
					C434.967,233.609,452.217,212.434,452.217,187.314z"/>
				<path opacity="0.7" fill="#FFFFFF" d="M437.012,186.27c0-20.84-13.559-39.076-33.393-46.488
					c-5.246-34.967-37.072-61.402-74.992-61.402c-37.176,0-68.582,25.414-74.701,59.477c-22.293,6.016-38.271,25.408-38.271,48.049
					c0,26.865,22.328,48.635,50.203,49.916l0.002,0.002c0,0,78.369,2.295,116.494,0.152c0.59,0.178,1.211,0.277,1.857,0.277
					c5.576,0,10.953-0.826,16.006-2.348c0.031-0.008,0.07-0.016,0.1-0.025c0.154-0.045,0.297-0.098,0.443-0.148
					C421.771,227.168,437.012,208.459,437.012,186.27z"/>
				<linearGradient id="SVGID_18_" gradientUnits="userSpaceOnUse" x1="312.9629" y1="323.0801" x2="312.9629" y2="323.0801">
					<stop  offset="0" style="stop-color:#FFFFFF"/>
					<stop  offset="1" style="stop-color:#5A6A78"/>
				</linearGradient>
				<path fill="url(#SVGID_18_)" d="M312.963,323.08"/>
				<g>
					
						<image overflow="visible" opacity="0.75" width="384" height="672" xlink:href="8DD09A53.png"  transform="matrix(0.24 0 0 0.24 280.9141 156.3672)">
					</image>
					<g>
						<path fill="#FFFFFF" d="M327.518,171.367l-31.604,61.723l31.025,9.367l-17.641,59.953l48.666-74.082l-30.447-10.572V171.367z
							 M327.518,171.367"/>
					</g>
				</g>
			</g>
			<g>
				<path fill="#FFFFFF" d="M374.158,247.318"/>
				<g>
					
						<image overflow="visible" opacity="0.75" width="2095" height="1624" xlink:href="8DD09A51.png"  transform="matrix(0.24 0 0 0.24 673.955 68.6782)">
					</image>
					<g>
						<path fill="none" stroke="#FFFFFF" stroke-width="3" stroke-miterlimit="10" d="M690.016,88.797l3.56-3.561l38.762,3.561
							l-21.16,27.973l7.107,16.371l74.057,25.488l-16.41,25.924l16.406,29.9l0.004,11.959l16.928,28.549c0,0,15,0.75,21,0
							c6-0.748,27.84,0,27.84,0l52.834,0.334l7.822,7.391l11.006,15.166l0.807,5.52c0,0,6.188,3.115,10.685,7.227
							c4.5,4.113,4.5,4.113,4.5,4.113s16.5,32.523,18,37.26c1.498,4.738,19.789-3.936,20.393,3.4
							c0.606,7.338,2.633,37.301,2.633,37.301s21.971,2.477,21.971,12.506c0,10.027,50.998,10.027,50.998,10.027
							c10.5,0,36.793,0,36.793,0s8.787,4.5,12.246,10.5s52.164,36.252,52.164,36.252"/>
					</g>
				</g>
				<g>
					
						<image overflow="visible" opacity="0.75" width="256" height="637" xlink:href="8DD09A57.png"  transform="matrix(0.24 0 0 0.24 897.8566 269.209)">
					</image>
					<g>
						<polyline fill="none" stroke="#FFFFFF" stroke-miterlimit="10" points="930.355,284.209 930.355,312.121 924.355,314.398 
							924.355,330.189 940.9,353.494 913.777,362.676 927.34,376.297 943.533,386.728 938.27,394.195 928.654,406.699 						"/>
					</g>
				</g>
				<g>
					
						<image overflow="visible" opacity="0.75" width="2142" height="2393" xlink:href="8DD09A50.png"  transform="matrix(0.24 0 0 0.24 219.894 -66.2184)">
					</image>
					<g>
						<path fill="none" stroke="#FFFFFF" stroke-width="4" stroke-miterlimit="10" d="M703.871-51l-3.559,32.396l3.559,24.914
							l-10.68,10.574v30.713l22.506,26.629l-18.945,10.326l-31.769,17.318l-17.789,14.293V164.4l17.789,25.154
							c0,0,0,22.205,0,33.402c0,11.197-44.074,8.457-44.074,8.457l-15.313,25.924l-58.402,41.859l32.156,22.328
							c-16.156,20.629-70.58,26.869-70.58,26.869l-25.07,3.016v48.057v37.74c0,0-22.457,36.611-31.482,36.779
							c-9.023,0.168-60.398,0-60.398,0l-48.291,8.838l-35.69-17.191l-72.279,25.465"/>
					</g>
				</g>
				<g>
					
						<image overflow="visible" opacity="0.75" width="2095" height="1624" xlink:href="8DD09A5E.png"  transform="matrix(0.24 0 0 0.24 673.955 68.6782)">
					</image>
					<g>
						<path fill="none" stroke="#FFFFFF" stroke-width="3" stroke-miterlimit="10" d="M690.016,88.797l3.56-3.561l38.762,3.561
							l-21.16,27.973l7.107,16.371l74.057,25.488l-16.41,25.924l16.406,29.9l0.004,11.959l16.928,28.549c0,0,15,0.75,21,0
							c6-0.748,27.84,0,27.84,0l52.834,0.334l7.822,7.391l11.006,15.166l0.807,5.52c0,0,6.188,3.115,10.685,7.227
							c4.5,4.113,4.5,4.113,4.5,4.113s16.5,32.523,18,37.26c1.498,4.738,19.789-3.936,20.393,3.4
							c0.606,7.338,2.633,37.301,2.633,37.301s21.971,2.477,21.971,12.506c0,10.027,50.998,10.027,50.998,10.027
							c10.5,0,36.793,0,36.793,0s8.787,4.5,12.246,10.5s52.164,36.252,52.164,36.252"/>
					</g>
				</g>
				<g opacity="0.5">
					
						<image overflow="visible" opacity="0.75" width="2095" height="1624" xlink:href="8DD09A5F.png"  transform="matrix(0.24 0 0 0.24 673.955 68.6782)">
					</image>
					<g>
						<path fill="none" stroke="#FFFFFF" stroke-width="3" stroke-miterlimit="10" d="M690.016,88.797l3.56-3.561l38.762,3.561
							l-21.16,27.973l7.107,16.371l74.057,25.488l-16.41,25.924l16.406,29.9l0.004,11.959l16.928,28.549c0,0,15,0.75,21,0
							c6-0.748,27.84,0,27.84,0l52.834,0.334l7.822,7.391l11.006,15.166l0.807,5.52c0,0,6.188,3.115,10.685,7.227
							c4.5,4.113,4.5,4.113,4.5,4.113s16.5,32.523,18,37.26c1.498,4.738,19.789-3.936,20.393,3.4
							c0.606,7.338,2.633,37.301,2.633,37.301s21.971,2.477,21.971,12.506c0,10.027,50.998,10.027,50.998,10.027
							c10.5,0,36.793,0,36.793,0s8.787,4.5,12.246,10.5s52.164,36.252,52.164,36.252"/>
					</g>
				</g>
				<g>
					
						<image overflow="visible" opacity="0.75" width="256" height="637" xlink:href="8DD09A52.png"  transform="matrix(0.24 0 0 0.24 897.8566 269.209)">
					</image>
					<g>
						<polyline fill="none" stroke="#FFFFFF" stroke-miterlimit="10" points="930.355,284.209 930.355,312.121 924.355,314.398 
							924.355,330.189 940.9,353.494 913.777,362.676 927.34,376.297 943.533,386.728 938.27,394.195 928.654,406.699 						"/>
					</g>
				</g>
				<g>
					
						<image overflow="visible" opacity="0.75" width="570" height="510" xlink:href="8DD09A55.png"  transform="matrix(0.24 0 0 0.24 468.5281 383.997)">
					</image>
					<g>
						<path fill="none" stroke="#FFFFFF" stroke-miterlimit="10" d="M483.699,399.467l22.438,8.178c0,0-7.807,27.486,2.633,27.486
							c10.439,0,28.438,0,28.438,0v9.355l44.775,7.397l7.723,39.215"/>
					</g>
				</g>
				<g>
					
						<image overflow="visible" opacity="0.75" width="570" height="510" xlink:href="8DD09A56.png"  transform="matrix(0.24 0 0 0.24 468.5281 383.997)">
					</image>
					<g>
						<path fill="none" stroke="#FFFFFF" stroke-miterlimit="10" d="M483.699,399.467l22.438,8.178c0,0-7.807,27.486,2.633,27.486
							c10.439,0,28.438,0,28.438,0v9.355l44.775,7.397l7.723,39.215"/>
					</g>
				</g>
				<g>
					
						<image overflow="visible" opacity="0.75" width="2142" height="2393" xlink:href="7F264E00.png"  transform="matrix(0.24 0 0 0.24 219.894 -66.2184)">
					</image>
					<g>
						<path fill="none" stroke="#FFFFFF" stroke-width="4" stroke-miterlimit="10" d="M703.871-51l-3.559,32.396l3.559,24.914
							l-10.68,10.574v30.713l22.506,26.629l-18.945,10.326l-31.769,17.318l-17.789,14.293V164.4l17.789,25.154
							c0,0,0,22.205,0,33.402c0,11.197-44.074,8.457-44.074,8.457l-15.313,25.924l-58.402,41.859l32.156,22.328
							c-16.156,20.629-70.58,26.869-70.58,26.869l-25.07,3.016v48.057v37.74c0,0-22.457,36.611-31.482,36.779
							c-9.023,0.168-60.398,0-60.398,0l-48.291,8.838l-35.69-17.191l-72.279,25.465"/>
					</g>
				</g>
				<g>
					
						<image overflow="visible" opacity="0.75" width="256" height="637" xlink:href="7F264E07.png"  transform="matrix(0.24 0 0 0.24 897.8566 269.209)">
					</image>
					<g>
						<polyline fill="none" stroke="#FFFFFF" stroke-miterlimit="10" points="930.355,284.209 930.355,312.121 924.355,314.398 
							924.355,330.189 940.9,353.494 913.777,362.676 927.34,376.297 943.533,386.728 938.27,394.195 928.654,406.699 						"/>
					</g>
				</g>
				<g>
					
						<image overflow="visible" opacity="0.75" width="570" height="510" xlink:href="7F264E01.png"  transform="matrix(0.24 0 0 0.24 468.5281 383.997)">
					</image>
					<g>
						<path fill="none" stroke="#FFFFFF" stroke-miterlimit="10" d="M483.699,399.467l22.438,8.178c0,0-7.807,27.486,2.633,27.486
							c10.439,0,28.438,0,28.438,0v9.355l44.775,7.397l7.723,39.215"/>
					</g>
				</g>
			</g>
		</g>
	</g>
	<rect x="0" y="-100" opacity="0.1" fill="#93A9F5" width="1920.001" height="100"/>
</g>
</svg>
