<?xml version="1.0" encoding="utf-8"?>
<!-- Generator: Adobe Illustrator 17.0.0, SVG Export Plug-In . SVG Version: 6.00 Build 0)  -->
<!DOCTYPE svg PUBLIC "-//W3C//DTD SVG 1.1//EN" "http://www.w3.org/Graphics/SVG/1.1/DTD/svg11.dtd">
<svg version="1.1" id="图层_1" xmlns="http://www.w3.org/2000/svg" xmlns:xlink="http://www.w3.org/1999/xlink" x="0px" y="0px"
	 width="1919.97px" height="649.721px" viewBox="0 0 1919.97 649.721" enable-background="new 0 0 1919.97 649.721"
	 xml:space="preserve">
<g>
	<linearGradient id="SVGID_1_" gradientUnits="userSpaceOnUse" x1="960.0004" y1="666.803" x2="960.0004" y2="-107.2847">
		<stop  offset="0" style="stop-color:#79818E"/>
		<stop  offset="1" style="stop-color:#647081"/>
	</linearGradient>
	<rect x="0" y="-100" fill="url(#SVGID_1_)" width="1920.001" height="749.606"/>
	<rect x="1606.417" y="-0.117" opacity="0" fill="#C7E8F9" width="313.553" height="649.838"/>
	<rect x="978.534" y="-0.117" opacity="0" fill="#C7E8F9" width="313.553" height="649.838"/>
	<rect x="664.984" y="-0.117" opacity="0" fill="#C7E8F9" width="313.552" height="649.838"/>
	<rect x="0" y="-100" opacity="0.1" fill="#93A9F5" width="1920.001" height="100"/>
	<g opacity="0.2">
		<g>
			<linearGradient id="SVGID_2_" gradientUnits="userSpaceOnUse" x1="130.8369" y1="455.1065" x2="130.8369" y2="407.381">
				<stop  offset="0" style="stop-color:#FFFFFF"/>
				<stop  offset="1" style="stop-color:#5A6A78"/>
			</linearGradient>
			<path fill="url(#SVGID_2_)" d="M133.469,453.293c0,1.453-1.178,2.633-2.633,2.633l0,0c-1.453,0-2.631-1.18-2.631-2.633v-56.617
				c0-1.453,1.178-2.633,2.631-2.633l0,0c1.455,0,2.633,1.18,2.633,2.633V453.293z"/>
		</g>
		<g>
			<linearGradient id="SVGID_3_" gradientUnits="userSpaceOnUse" x1="620.9081" y1="181.3037" x2="620.9081" y2="92.3738">
				<stop  offset="0" style="stop-color:#FFFFFF"/>
				<stop  offset="1" style="stop-color:#5A6A78"/>
			</linearGradient>
			<path fill="url(#SVGID_3_)" d="M624.469,178.852c0,1.967-1.594,3.561-3.56,3.561l0,0c-1.967,0-3.561-1.594-3.561-3.561v-76.596
				c0-1.965,1.594-3.561,3.561-3.561l0,0c1.967,0,3.56,1.596,3.56,3.561V178.852z"/>
			<linearGradient id="SVGID_4_" gradientUnits="userSpaceOnUse" x1="808.5205" y1="293.1772" x2="808.5205" y2="226.3732">
				<stop  offset="0" style="stop-color:#FFFFFF"/>
				<stop  offset="1" style="stop-color:#5A6A78"/>
			</linearGradient>
			<path fill="url(#SVGID_4_)" d="M811.688,291.24c0,1.553-1.418,2.813-3.166,2.813l0,0c-1.75,0-3.168-1.26-3.168-2.813v-60.514
				c0-1.555,1.418-2.814,3.168-2.814l0,0c1.748,0,3.166,1.26,3.166,2.814V291.24z"/>
			<linearGradient id="SVGID_5_" gradientUnits="userSpaceOnUse" x1="506.1376" y1="357.8232" x2="506.1376" y2="292.3817">
				<stop  offset="0" style="stop-color:#FFFFFF"/>
				<stop  offset="1" style="stop-color:#5A6A78"/>
			</linearGradient>
			<path fill="url(#SVGID_5_)" d="M508.77,356.012c0,1.453-1.178,2.631-2.631,2.631l0,0c-1.455,0-2.633-1.178-2.633-2.631v-56.617
				c0-1.455,1.178-2.633,2.633-2.633l0,0c1.453,0,2.631,1.178,2.631,2.633V356.012z"/>
		</g>
		<g>
			<linearGradient id="SVGID_6_" gradientUnits="userSpaceOnUse" x1="1240.1172" y1="399.2964" x2="1240.1172" y2="330.8799">
				<stop  offset="0" style="stop-color:#FFFFFF"/>
				<stop  offset="1" style="stop-color:#5A6A78"/>
			</linearGradient>
			<path fill="url(#SVGID_6_)" d="M1243.284,397.359c0,1.555-1.418,2.813-3.166,2.813l0,0c-1.75,0-3.168-1.258-3.168-2.813v-60.514
				c0-1.553,1.418-2.813,3.168-2.813l0,0c1.748,0,3.166,1.26,3.166,2.813V397.359z"/>
			<linearGradient id="SVGID_7_" gradientUnits="userSpaceOnUse" x1="937.7353" y1="463.9444" x2="937.7353" y2="398.0819">
				<stop  offset="0" style="stop-color:#FFFFFF"/>
				<stop  offset="1" style="stop-color:#5A6A78"/>
			</linearGradient>
			<path fill="url(#SVGID_7_)" d="M940.367,462.131c0,1.453-1.178,2.633-2.633,2.633l0,0c-1.453,0-2.631-1.18-2.631-2.633v-56.617
				c0-1.453,1.178-2.633,2.631-2.633l0,0c1.455,0,2.633,1.18,2.633,2.633V462.131z"/>
		</g>
		<g>
			<linearGradient id="SVGID_8_" gradientUnits="userSpaceOnUse" x1="1472.1768" y1="249.0869" x2="1472.1768" y2="163.4664">
				<stop  offset="0" style="stop-color:#FFFFFF"/>
				<stop  offset="1" style="stop-color:#5A6A78"/>
			</linearGradient>
			<path fill="url(#SVGID_8_)" d="M1475.737,246.635c0,1.967-1.594,3.561-3.561,3.561l0,0c-1.967,0-3.561-1.594-3.561-3.561v-76.596
				c0-1.965,1.594-3.561,3.561-3.561l0,0c1.967,0,3.561,1.596,3.561,3.561V246.635z"/>
			<linearGradient id="SVGID_9_" gradientUnits="userSpaceOnUse" x1="1659.7889" y1="360.9604" x2="1659.7889" y2="290.2052">
				<stop  offset="0" style="stop-color:#FFFFFF"/>
				<stop  offset="1" style="stop-color:#5A6A78"/>
			</linearGradient>
			<path fill="url(#SVGID_9_)" d="M1662.956,359.023c0,1.553-1.418,2.813-3.168,2.813l0,0c-1.748,0-3.166-1.26-3.166-2.813V298.51
				c0-1.555,1.418-2.814,3.166-2.814l0,0c1.75,0,3.168,1.26,3.168,2.814V359.023z"/>
			<linearGradient id="SVGID_10_" gradientUnits="userSpaceOnUse" x1="1357.4063" y1="425.6064" x2="1357.4063" y2="358.8766">
				<stop  offset="0" style="stop-color:#FFFFFF"/>
				<stop  offset="1" style="stop-color:#5A6A78"/>
			</linearGradient>
			<path fill="url(#SVGID_10_)" d="M1360.038,423.795c0,1.453-1.178,2.631-2.633,2.631l0,0c-1.453,0-2.631-1.178-2.631-2.631
				v-56.617c0-1.455,1.178-2.633,2.631-2.633l0,0c1.455,0,2.633,1.178,2.633,2.633V423.795z"/>
		</g>
	</g>
	<g opacity="0.2">
		<g>
			<linearGradient id="SVGID_11_" gradientUnits="userSpaceOnUse" x1="703.872" y1="475.876" x2="703.872" y2="428.1505">
				<stop  offset="0" style="stop-color:#FFFFFF"/>
				<stop  offset="1" style="stop-color:#5A6A78"/>
			</linearGradient>
			<path fill="url(#SVGID_11_)" d="M706.504,474.063c0,1.453-1.178,2.633-2.631,2.633l0,0c-1.455,0-2.633-1.18-2.633-2.633v-56.617
				c0-1.453,1.178-2.633,2.633-2.633l0,0c1.453,0,2.631,1.18,2.631,2.633V474.063z"/>
		</g>
		<g>
			<linearGradient id="SVGID_12_" gradientUnits="userSpaceOnUse" x1="1193.9443" y1="202.0732" x2="1193.9443" y2="116.2124">
				<stop  offset="0" style="stop-color:#FFFFFF"/>
				<stop  offset="1" style="stop-color:#5A6A78"/>
			</linearGradient>
			<path fill="url(#SVGID_12_)" d="M1197.505,199.621c0,1.967-1.594,3.561-3.56,3.561l0,0c-1.967,0-3.561-1.594-3.561-3.561v-76.596
				c0-1.965,1.594-3.561,3.561-3.561l0,0c1.967,0,3.56,1.596,3.56,3.561V199.621z"/>
			<linearGradient id="SVGID_13_" gradientUnits="userSpaceOnUse" x1="1381.5566" y1="313.9468" x2="1381.5566" y2="244.7822">
				<stop  offset="0" style="stop-color:#FFFFFF"/>
				<stop  offset="1" style="stop-color:#5A6A78"/>
			</linearGradient>
			<path fill="url(#SVGID_13_)" d="M1384.724,312.01c0,1.553-1.418,2.813-3.166,2.813l0,0c-1.75,0-3.168-1.26-3.168-2.813v-60.514
				c0-1.555,1.418-2.814,3.168-2.814l0,0c1.748,0,3.166,1.26,3.166,2.814V312.01z"/>
			<linearGradient id="SVGID_14_" gradientUnits="userSpaceOnUse" x1="1079.1738" y1="378.5927" x2="1079.1738" y2="312.1822">
				<stop  offset="0" style="stop-color:#FFFFFF"/>
				<stop  offset="1" style="stop-color:#5A6A78"/>
			</linearGradient>
			<path fill="url(#SVGID_14_)" d="M1081.806,376.781c0,1.453-1.178,2.631-2.631,2.631l0,0c-1.455,0-2.633-1.178-2.633-2.631
				v-56.617c0-1.455,1.178-2.633,2.633-2.633l0,0c1.453,0,2.631,1.178,2.631,2.633V376.781z"/>
		</g>
		<g>
			<linearGradient id="SVGID_15_" gradientUnits="userSpaceOnUse" x1="1813.1543" y1="420.0657" x2="1813.1543" y2="369.058">
				<stop  offset="0" style="stop-color:#FFFFFF"/>
				<stop  offset="1" style="stop-color:#5A6A78"/>
			</linearGradient>
			<path fill="url(#SVGID_15_)" d="M1816.321,418.129c0,1.555-1.418,2.813-3.168,2.813l0,0c-1.748,0-3.166-1.258-3.166-2.813
				v-60.514c0-1.553,1.418-2.813,3.166-2.813l0,0c1.75,0,3.168,1.26,3.168,2.813V418.129z"/>
			<linearGradient id="SVGID_16_" gradientUnits="userSpaceOnUse" x1="1510.7715" y1="484.7139" x2="1510.7715" y2="436.9884">
				<stop  offset="0" style="stop-color:#FFFFFF"/>
				<stop  offset="1" style="stop-color:#5A6A78"/>
			</linearGradient>
			<path fill="url(#SVGID_16_)" d="M1513.403,482.9c0,1.453-1.178,2.633-2.633,2.633l0,0c-1.453,0-2.631-1.18-2.631-2.633v-56.617
				c0-1.453,1.178-2.633,2.631-2.633l0,0c1.455,0,2.633,1.18,2.633,2.633V482.9z"/>
		</g>
	</g>
	<g opacity="0.2">
		<g>
			<linearGradient id="SVGID_17_" gradientUnits="userSpaceOnUse" x1="206.6806" y1="530.9521" x2="206.6806" y2="483.2267">
				<stop  offset="0" style="stop-color:#FFFFFF"/>
				<stop  offset="1" style="stop-color:#5A6A78"/>
			</linearGradient>
			<path fill="url(#SVGID_17_)" d="M209.313,529.139c0,1.453-1.178,2.633-2.631,2.633l0,0c-1.455,0-2.633-1.18-2.633-2.633v-56.617
				c0-1.453,1.178-2.633,2.633-2.633l0,0c1.453,0,2.631,1.18,2.631,2.633V529.139z"/>
		</g>
		<g>
			<linearGradient id="SVGID_18_" gradientUnits="userSpaceOnUse" x1="696.7538" y1="257.1494" x2="696.7538" y2="166.8725">
				<stop  offset="0" style="stop-color:#FFFFFF"/>
				<stop  offset="1" style="stop-color:#5A6A78"/>
			</linearGradient>
			<path fill="url(#SVGID_18_)" d="M700.314,254.697c0,1.967-1.594,3.561-3.56,3.561l0,0c-1.967,0-3.561-1.594-3.561-3.561v-76.596
				c0-1.967,1.594-3.561,3.561-3.561l0,0c1.967,0,3.56,1.594,3.56,3.561V254.697z"/>
			<linearGradient id="SVGID_19_" gradientUnits="userSpaceOnUse" x1="884.3661" y1="369.0229" x2="884.3661" y2="298.3616">
				<stop  offset="0" style="stop-color:#FFFFFF"/>
				<stop  offset="1" style="stop-color:#5A6A78"/>
			</linearGradient>
			<path fill="url(#SVGID_19_)" d="M887.533,367.084c0,1.555-1.418,2.814-3.168,2.814l0,0c-1.748,0-3.166-1.26-3.166-2.814V306.57
				c0-1.553,1.418-2.813,3.166-2.813l0,0c1.75,0,3.168,1.26,3.168,2.813V367.084z"/>
			<linearGradient id="SVGID_20_" gradientUnits="userSpaceOnUse" x1="581.9833" y1="433.6689" x2="581.9833" y2="366.3734">
				<stop  offset="0" style="stop-color:#FFFFFF"/>
				<stop  offset="1" style="stop-color:#5A6A78"/>
			</linearGradient>
			<path fill="url(#SVGID_20_)" d="M584.615,431.855c0,1.455-1.178,2.633-2.633,2.633l0,0c-1.453,0-2.631-1.178-2.631-2.633v-56.617
				c0-1.453,1.178-2.631,2.631-2.631l0,0c1.455,0,2.633,1.178,2.633,2.631V431.855z"/>
		</g>
		<g>
			<linearGradient id="SVGID_21_" gradientUnits="userSpaceOnUse" x1="1315.9629" y1="475.1421" x2="1315.9629" y2="406.3116">
				<stop  offset="0" style="stop-color:#FFFFFF"/>
				<stop  offset="1" style="stop-color:#5A6A78"/>
			</linearGradient>
			<path fill="url(#SVGID_21_)" d="M1319.13,473.205c0,1.553-1.418,2.813-3.168,2.813l0,0c-1.748,0-3.166-1.26-3.166-2.813v-60.514
				c0-1.555,1.418-2.813,3.166-2.813l0,0c1.75,0,3.168,1.258,3.168,2.813V473.205z"/>
			<linearGradient id="SVGID_22_" gradientUnits="userSpaceOnUse" x1="1013.58" y1="539.7901" x2="1013.58" y2="476.2556">
				<stop  offset="0" style="stop-color:#FFFFFF"/>
				<stop  offset="1" style="stop-color:#5A6A78"/>
			</linearGradient>
			<path fill="url(#SVGID_22_)" d="M1016.212,537.977c0,1.453-1.178,2.633-2.633,2.633l0,0c-1.453,0-2.631-1.18-2.631-2.633v-56.617
				c0-1.453,1.178-2.633,2.631-2.633l0,0c1.455,0,2.633,1.18,2.633,2.633V537.977z"/>
		</g>
		<g>
			<linearGradient id="SVGID_23_" gradientUnits="userSpaceOnUse" x1="1548.0205" y1="324.9326" x2="1548.0205" y2="238.1283">
				<stop  offset="0" style="stop-color:#FFFFFF"/>
				<stop  offset="1" style="stop-color:#5A6A78"/>
			</linearGradient>
			<path fill="url(#SVGID_23_)" d="M1551.581,322.48c0,1.967-1.594,3.56-3.561,3.56l0,0c-1.967,0-3.561-1.594-3.561-3.56v-76.596
				c0-1.967,1.594-3.561,3.561-3.561l0,0c1.967,0,3.561,1.594,3.561,3.561V322.48z"/>
			<linearGradient id="SVGID_24_" gradientUnits="userSpaceOnUse" x1="1735.6328" y1="436.8061" x2="1735.6328" y2="366.2155">
				<stop  offset="0" style="stop-color:#FFFFFF"/>
				<stop  offset="1" style="stop-color:#5A6A78"/>
			</linearGradient>
			<path fill="url(#SVGID_24_)" d="M1738.8,434.867c0,1.555-1.418,2.814-3.166,2.814l0,0c-1.75,0-3.168-1.26-3.168-2.814v-60.514
				c0-1.553,1.418-2.813,3.168-2.813l0,0c1.748,0,3.166,1.26,3.166,2.813V434.867z"/>
			<linearGradient id="SVGID_25_" gradientUnits="userSpaceOnUse" x1="1433.25" y1="501.4521" x2="1433.25" y2="436.8516">
				<stop  offset="0" style="stop-color:#FFFFFF"/>
				<stop  offset="1" style="stop-color:#5A6A78"/>
			</linearGradient>
			<path fill="url(#SVGID_25_)" d="M1435.882,499.639c0,1.455-1.178,2.633-2.631,2.633l0,0c-1.455,0-2.633-1.178-2.633-2.633
				v-56.617c0-1.453,1.178-2.631,2.633-2.631l0,0c1.453,0,2.631,1.178,2.631,2.631V499.639z"/>
		</g>
	</g>
	<g opacity="0.2">
		<g>
			<linearGradient id="SVGID_26_" gradientUnits="userSpaceOnUse" x1="232.9267" y1="423.5733" x2="232.9267" y2="375.8478">
				<stop  offset="0" style="stop-color:#FFFFFF"/>
				<stop  offset="1" style="stop-color:#5A6A78"/>
			</linearGradient>
			<path fill="url(#SVGID_26_)" d="M235.559,421.76c0,1.453-1.178,2.633-2.631,2.633l0,0c-1.455,0-2.633-1.18-2.633-2.633v-56.617
				c0-1.453,1.178-2.633,2.633-2.633l0,0c1.453,0,2.631,1.18,2.631,2.633V421.76z"/>
		</g>
		<g>
			<linearGradient id="SVGID_27_" gradientUnits="userSpaceOnUse" x1="722.9999" y1="149.7705" x2="722.9999" y2="63.3681">
				<stop  offset="0" style="stop-color:#FFFFFF"/>
				<stop  offset="1" style="stop-color:#5A6A78"/>
			</linearGradient>
			<path fill="url(#SVGID_27_)" d="M726.56,147.318c0,1.967-1.594,3.561-3.56,3.561l0,0c-1.967,0-3.561-1.594-3.561-3.561V70.723
				c0-1.967,1.594-3.561,3.561-3.561l0,0c1.967,0,3.56,1.594,3.56,3.561V147.318z"/>
			<linearGradient id="SVGID_28_" gradientUnits="userSpaceOnUse" x1="910.6123" y1="261.644" x2="910.6123" y2="192.867">
				<stop  offset="0" style="stop-color:#FFFFFF"/>
				<stop  offset="1" style="stop-color:#5A6A78"/>
			</linearGradient>
			<path fill="url(#SVGID_28_)" d="M913.779,259.705c0,1.555-1.418,2.814-3.168,2.814l0,0c-1.748,0-3.166-1.26-3.166-2.814v-60.514
				c0-1.553,1.418-2.813,3.166-2.813l0,0c1.75,0,3.168,1.26,3.168,2.813V259.705z"/>
			<linearGradient id="SVGID_29_" gradientUnits="userSpaceOnUse" x1="608.2294" y1="326.29" x2="608.2294" y2="260.8479">
				<stop  offset="0" style="stop-color:#FFFFFF"/>
				<stop  offset="1" style="stop-color:#5A6A78"/>
			</linearGradient>
			<path fill="url(#SVGID_29_)" d="M610.861,324.477c0,1.455-1.178,2.633-2.633,2.633l0,0c-1.453,0-2.631-1.178-2.631-2.633v-56.617
				c0-1.453,1.178-2.631,2.631-2.631l0,0c1.455,0,2.633,1.178,2.633,2.631V324.477z"/>
		</g>
		<g>
			<linearGradient id="SVGID_30_" gradientUnits="userSpaceOnUse" x1="1761.8789" y1="329.427" x2="1761.8789" y2="278.4178">
				<stop  offset="0" style="stop-color:#FFFFFF"/>
				<stop  offset="1" style="stop-color:#5A6A78"/>
			</linearGradient>
			<path fill="url(#SVGID_30_)" d="M1765.046,327.488c0,1.555-1.418,2.814-3.166,2.814l0,0c-1.75,0-3.168-1.26-3.168-2.814v-60.514
				c0-1.553,1.418-2.813,3.168-2.813l0,0c1.748,0,3.166,1.26,3.166,2.813V327.488z"/>
			<linearGradient id="SVGID_31_" gradientUnits="userSpaceOnUse" x1="1459.4961" y1="394.0733" x2="1459.4961" y2="346.3493">
				<stop  offset="0" style="stop-color:#FFFFFF"/>
				<stop  offset="1" style="stop-color:#5A6A78"/>
			</linearGradient>
			<path fill="url(#SVGID_31_)" d="M1462.128,392.26c0,1.455-1.178,2.633-2.631,2.633l0,0c-1.455,0-2.633-1.178-2.633-2.633v-56.617
				c0-1.453,1.178-2.631,2.633-2.631l0,0c1.453,0,2.631,1.178,2.631,2.631V392.26z"/>
		</g>
	</g>
	<path fill="#FFFFFF" d="M374.158,198.316"/>
	<g>
		<path opacity="0.05" fill="#FFFFFF" d="M465.727,190.527c0-26.59-17.15-49.857-42.238-59.314
			c-6.637-44.613-46.896-78.342-94.861-78.342c-47.023,0-86.75,32.426-94.49,75.885c-28.199,7.676-48.41,32.418-48.41,61.307
			c0,34.275,28.244,62.053,63.504,63.688v0.002c0,0,99.133,2.926,147.359,0.195c0.744,0.225,1.531,0.352,2.348,0.352
			c7.055,0,13.855-1.053,20.246-2.994c0.039-0.012,0.09-0.021,0.125-0.033c0.195-0.059,0.377-0.127,0.563-0.188
			C446.451,242.709,465.727,218.84,465.727,190.527z"/>
		
			<linearGradient id="SVGID_32_" gradientUnits="userSpaceOnUse" x1="1343.2678" y1="1062.2091" x2="1343.2678" y2="952.1631" gradientTransform="matrix(0.8716 0.4901 -0.4901 0.8716 -348.7253 -1302.3181)">
			<stop  offset="0" style="stop-color:#FFFFFF"/>
			<stop  offset="1" style="stop-color:#5A6A78"/>
		</linearGradient>
		<path opacity="0.7" fill="url(#SVGID_32_)" d="M308.15,282.006c-1.227,2.184-4.525,2.662-7.365,1.064l0,0
			c-2.84-1.598-4.147-4.664-2.918-6.848l47.861-85.111c1.229-2.186,4.525-2.662,7.367-1.064l0,0c2.84,1.596,4.145,4.662,2.916,6.848
			L308.15,282.006z"/>
		
			<linearGradient id="SVGID_33_" gradientUnits="userSpaceOnUse" x1="1311.6687" y1="1079.9773" x2="1311.6687" y2="970.9622" gradientTransform="matrix(0.8716 0.4901 -0.4901 0.8716 -348.7253 -1302.3181)">
			<stop  offset="0" style="stop-color:#FFFFFF"/>
			<stop  offset="1" style="stop-color:#5A6A78"/>
		</linearGradient>
		<path opacity="0.7" fill="url(#SVGID_33_)" d="M271.9,282.006c-1.227,2.184-4.525,2.662-7.365,1.064l0,0
			c-2.84-1.598-4.147-4.664-2.918-6.848l47.861-85.111c1.229-2.186,4.525-2.662,7.367-1.064l0,0c2.84,1.596,4.145,4.662,2.916,6.848
			L271.9,282.006z"/>
		
			<linearGradient id="SVGID_34_" gradientUnits="userSpaceOnUse" x1="1374.0787" y1="1044.8851" x2="1374.0787" y2="934.8445" gradientTransform="matrix(0.8716 0.4901 -0.4901 0.8716 -348.7253 -1302.3181)">
			<stop  offset="0" style="stop-color:#FFFFFF"/>
			<stop  offset="1" style="stop-color:#5A6A78"/>
		</linearGradient>
		<path opacity="0.7" fill="url(#SVGID_34_)" d="M343.496,282.006c-1.229,2.184-4.525,2.662-7.367,1.064l0,0
			c-2.84-1.598-4.145-4.664-2.916-6.848l47.859-85.111c1.228-2.186,4.527-2.662,7.367-1.064l0,0c2.84,1.596,4.146,4.662,2.918,6.848
			L343.496,282.006z"/>
		<path opacity="0.3" fill="#FFFFFF" d="M452.219,187.314c0-23.59-15.35-44.232-37.797-52.621
			c-5.939-39.58-41.965-69.502-84.887-69.502c-42.078,0-77.627,28.768-84.555,67.322c-25.232,6.811-43.318,28.76-43.318,54.387
			c0,30.41,25.273,55.053,56.826,56.502v0.002c0,0,88.707,2.596,131.863,0.172c0.666,0.201,1.371,0.314,2.1,0.314
			c6.313,0,12.398-0.936,18.117-2.658c0.035-0.01,0.08-0.02,0.113-0.029c0.176-0.051,0.336-0.111,0.502-0.166
			C434.969,233.607,452.219,212.432,452.219,187.314z"/>
		<path opacity="0.7" fill="#FFFFFF" d="M437.012,186.268c0-20.84-13.559-39.076-33.391-46.488
			c-5.248-34.967-37.074-61.402-74.994-61.402c-37.174,0-68.58,25.416-74.701,59.477c-22.291,6.016-38.27,25.408-38.27,48.049
			c0,26.865,22.328,48.637,50.203,49.916v0.004c0,0,78.369,2.293,116.496,0.152c0.588,0.176,1.209,0.275,1.855,0.275
			c5.576,0,10.955-0.826,16.006-2.348c0.033-0.008,0.07-0.016,0.1-0.025c0.156-0.045,0.297-0.098,0.445-0.146
			C421.773,227.166,437.012,208.459,437.012,186.268z"/>
	</g>
</g>
<g>
	<g>
		<g>
			<defs>
				<rect id="SVGID_68_" x="1968.336" y="-89.71" width="1919.191" height="749.606"/>
			</defs>
			<clipPath id="SVGID_35_">
				<use xlink:href="#SVGID_68_"  overflow="visible"/>
			</clipPath>
			<g opacity="0.5" clip-path="url(#SVGID_35_)">
				<g>
					<g>
						<path fill="#D39C42" d="M1953.967,558.991c0,0,449.977,94,609.908,22c159.934-72.001,475.801-372,1217.488-22
							s410.412-34,483.088,74l28.697,159.736c0,0-57.977,92.264-159.934,78.264s-1653.304-94-1653.304-94l-467.804-50l-243.896-58"
							/>
					</g>
				</g>
			</g>
		</g>
	</g>
</g>
</svg>
