<?xml version="1.0" encoding="utf-8"?>
<!-- Generator: Adobe Illustrator 17.0.0, SVG Export Plug-In . SVG Version: 6.00 Build 0)  -->
<!DOCTYPE svg PUBLIC "-//W3C//DTD SVG 1.1//EN" "http://www.w3.org/Graphics/SVG/1.1/DTD/svg11.dtd">
<svg version="1.1" id="图层_1" xmlns="http://www.w3.org/2000/svg" xmlns:xlink="http://www.w3.org/1999/xlink" x="0px" y="0px"
	 width="140px" height="140px" viewBox="0 0 140 140" enable-background="new 0 0 140 140" xml:space="preserve">
<g>
	<path fill="#FFFFFF" d="M69.999,37.693c-17.81,0-32.307,14.495-32.307,32.308s14.496,32.308,32.307,32.308
		c17.813,0,32.309-14.495,32.309-32.308S87.812,37.693,69.999,37.693L69.999,37.693z M69.999,93.077
		c-12.746,0-23.076-10.33-23.076-23.077c0-12.747,10.33-23.077,23.076-23.077c12.748,0,23.078,10.33,23.078,23.077
		C93.077,82.747,82.747,93.077,69.999,93.077L69.999,93.077z M69.999,28.461c2.553,0,4.617-2.065,4.617-4.615v-9.23
		c0-2.552-2.064-4.615-4.617-4.615c-2.551,0-4.616,2.063-4.616,4.615v9.23C65.383,26.397,67.449,28.461,69.999,28.461L69.999,28.461
		z M69.999,111.538c-2.551,0-4.616,2.064-4.616,4.616v9.23c0,2.552,2.065,4.615,4.616,4.615c2.553,0,4.617-2.063,4.617-4.615v-9.23
		C74.616,113.603,72.552,111.538,69.999,111.538L69.999,111.538z M105.896,40.621l6.525-6.525c1.805-1.804,1.805-4.725,0-6.527
		c-1.803-1.803-4.723-1.803-6.525,0l-6.527,6.527c-1.801,1.803-1.801,4.723,0,6.525C101.173,42.425,104.093,42.425,105.896,40.621
		L105.896,40.621z M34.105,99.378l-6.525,6.525c-1.805,1.805-1.805,4.725,0,6.527c1.803,1.803,4.723,1.803,6.525,0l6.527-6.527
		c1.803-1.811,1.803-4.723,0-6.525C38.827,97.575,35.907,97.566,34.105,99.378L34.105,99.378z M28.462,70
		c0-2.552-2.064-4.616-4.615-4.616h-9.231c-2.553,0-4.615,2.064-4.615,4.616c0,2.551,2.063,4.615,4.615,4.615h9.231
		C26.398,74.616,28.462,72.551,28.462,70L28.462,70z M125.383,65.384h-9.228c-2.553,0-4.617,2.064-4.617,4.616
		c0,2.551,2.064,4.615,4.617,4.615h9.228c2.553,0,4.618-2.064,4.618-4.615C130.001,67.449,127.937,65.384,125.383,65.384
		L125.383,65.384z M34.095,40.627c1.805,1.802,4.725,1.802,6.527,0c1.802-1.803,1.802-4.724,0-6.527l-6.527-6.526
		c-1.801-1.803-4.723-1.803-6.527,0c-1.801,1.803-1.801,4.724,0,6.526L34.095,40.627L34.095,40.627z M105.904,99.368
		c-1.811-1.803-4.723-1.803-6.525,0c-1.803,1.804-1.811,4.725,0,6.528l6.525,6.525c1.805,1.804,4.725,1.804,6.529,0
		c1.801-1.803,1.801-4.724,0-6.525L105.904,99.368L105.904,99.368z M105.904,99.368"/>
</g>
</svg>
