<?xml version="1.0" encoding="utf-8"?>
<!-- Generator: Adobe Illustrator 17.0.0, SVG Export Plug-In . SVG Version: 6.00 Build 0)  -->
<!DOCTYPE svg PUBLIC "-//W3C//DTD SVG 1.1//EN" "http://www.w3.org/Graphics/SVG/1.1/DTD/svg11.dtd">
<svg version="1.1" id="图层_1" xmlns="http://www.w3.org/2000/svg" xmlns:xlink="http://www.w3.org/1999/xlink" x="0px" y="0px"
	 width="1920.012px" height="649.719px" viewBox="0 0 1920.012 649.719" enable-background="new 0 0 1920.012 649.719"
	 xml:space="preserve">
<g>
	<linearGradient id="SVGID_1_" gradientUnits="userSpaceOnUse" x1="960.0117" y1="662.9175" x2="960.0117" y2="-95.209">
		<stop  offset="0" style="stop-color:#79818E"/>
		<stop  offset="1" style="stop-color:#647081"/>
	</linearGradient>
	<rect x="0.012" y="-99.884" fill="url(#SVGID_1_)" width="1920" height="749.604"/>
	<rect x="1606.43" y="0" opacity="0" fill="#C7E8F9" width="313.553" height="649.834"/>
	<rect x="1292.1" y="0" opacity="0" fill="#C7E8F9" width="313.553" height="649.834"/>
	<rect x="978.547" y="0" opacity="0" fill="#C7E8F9" width="313.553" height="649.834"/>
	<rect x="664.996" y="0" opacity="0" fill="#C7E8F9" width="313.553" height="649.834"/>
	<rect x="0" y="-99.884" opacity="0.1" fill="#93A9F5" width="1920" height="99.884"/>
	<path fill="#FFFFFF" d="M374.17,198.434"/>
	<g>
		<defs>
			<rect id="SVGID_91_" x="0.012" y="-99.884" width="1920" height="749.604"/>
		</defs>
		<clipPath id="SVGID_2_">
			<use xlink:href="#SVGID_91_"  overflow="visible"/>
		</clipPath>
		<g opacity="0.2" clip-path="url(#SVGID_2_)">
			
				<image overflow="visible" width="2950" height="2261" xlink:href="47DEEE9A.png"  transform="matrix(0.24 0 0 0.24 209.9024 409.7304)">
			</image>
		</g>
	</g>
	<g>
		<path opacity="0.05" fill="#FFFFFF" d="M463.324,190.759c0-26.589-17.15-49.857-42.238-59.314
			c-6.637-44.613-46.897-78.342-94.861-78.342c-47.023,0-86.75,32.425-94.49,75.886c-28.199,7.676-48.41,32.418-48.41,61.306
			c0,34.276,28.244,62.054,63.504,63.688v0.002c0,0,99.133,2.926,147.359,0.195c0.744,0.225,1.531,0.351,2.348,0.351
			c7.055,0,13.855-1.053,20.246-2.994c0.039-0.012,0.09-0.021,0.125-0.033c0.197-0.059,0.377-0.126,0.563-0.188
			C444.049,242.941,463.324,219.073,463.324,190.759z"/>
		<path opacity="0.3" fill="#FFFFFF" d="M449.815,187.546c0-23.588-15.346-44.231-37.795-52.62
			c-5.94-39.58-41.963-69.502-84.887-69.502c-42.078,0-77.627,28.768-84.555,67.323c-25.232,6.811-43.318,28.76-43.318,54.387
			c0,30.41,25.273,55.052,56.826,56.502v0.002c0,0,88.707,2.596,131.863,0.172c0.666,0.202,1.371,0.313,2.1,0.313
			c6.313,0,12.4-0.935,18.117-2.657c0.035-0.01,0.08-0.019,0.113-0.029c0.176-0.05,0.336-0.111,0.502-0.166
			C432.566,233.84,449.815,212.665,449.815,187.546z"/>
		<path opacity="0.7" fill="#FFFFFF" d="M434.609,186.5c0-20.839-13.559-39.075-33.391-46.488
			c-5.248-34.967-37.074-61.403-74.994-61.403c-37.174,0-68.582,25.415-74.701,59.477c-22.293,6.016-38.27,25.409-38.27,48.049
			c0,26.865,22.328,48.636,50.203,49.916v0.003c0,0,78.369,2.294,116.496,0.152c0.588,0.177,1.209,0.277,1.855,0.277
			c5.576,0,10.955-0.827,16.006-2.348c0.033-0.008,0.07-0.016,0.1-0.026c0.156-0.045,0.297-0.098,0.445-0.147
			C419.371,227.399,434.609,208.691,434.609,186.5z"/>
	</g>
</g>
</svg>
