<?xml version="1.0" encoding="utf-8"?>
<!-- Generator: Adobe Illustrator 17.0.0, SVG Export Plug-In . SVG Version: 6.00 Build 0)  -->
<!DOCTYPE svg PUBLIC "-//W3C//DTD SVG 1.1//EN" "http://www.w3.org/Graphics/SVG/1.1/DTD/svg11.dtd">
<svg version="1.1" id="图层_1" xmlns="http://www.w3.org/2000/svg" xmlns:xlink="http://www.w3.org/1999/xlink" x="0px" y="0px"
	 width="1919.971px" height="649.719px" viewBox="0 0 1919.971 649.719" enable-background="new 0 0 1919.971 649.719"
	 xml:space="preserve">
<g>
	<linearGradient id="SVGID_1_" gradientUnits="userSpaceOnUse" x1="960" y1="658.8019" x2="960" y2="-99.9168">
		<stop  offset="0" style="stop-color:#A4C4EB"/>
		<stop  offset="1" style="stop-color:#637EC1"/>
	</linearGradient>
	<rect x="0" y="-100" fill="url(#SVGID_1_)" width="1920" height="749.604"/>
	<rect x="1606.418" y="-0.116" opacity="0" fill="#C7E8F9" width="313.553" height="649.834"/>
	<rect x="1292.088" y="-0.116" opacity="0" fill="#C7E8F9" width="313.553" height="649.834"/>
	<rect x="978.535" y="-0.116" opacity="0" fill="#C7E8F9" width="313.553" height="649.834"/>
	<rect x="664.984" y="-0.116" opacity="0" fill="#C7E8F9" width="313.553" height="649.834"/>
	<rect x="0" y="-100" opacity="0.1" fill="#93A9F5" width="1920" height="100"/>
	<path fill="#FFFFFF" d="M374.158,198.318"/>
	<g>
		<circle fill="#FFFFFF" cx="618.588" cy="336.701" r="20.605"/>
		<g>
			<g>
				<path fill="#FFFFFF" d="M532.398,57.384c3.225,0,3.225-5,0-5C529.174,52.384,529.174,57.384,532.398,57.384L532.398,57.384z"/>
			</g>
		</g>
		<g>
			<g>
				<path fill="#FFFFFF" d="M647.398,175.384c3.225,0,3.225-5,0-5C644.174,170.384,644.174,175.384,647.398,175.384L647.398,175.384
					z"/>
			</g>
		</g>
		<g>
			<g>
				<path fill="#FFFFFF" d="M707.398,316.384c3.225,0,3.225-5,0-5C704.174,311.384,704.174,316.384,707.398,316.384L707.398,316.384
					z"/>
			</g>
		</g>
		<g>
			<g>
				<path fill="#FFFFFF" d="M937.398,219.384c3.225,0,3.225-5,0-5C934.174,214.384,934.174,219.384,937.398,219.384L937.398,219.384
					z"/>
			</g>
		</g>
		<g>
			<g>
				<path fill="#FFFFFF" d="M1040.398,81.384c3.225,0,3.225-5,0-5S1037.174,81.384,1040.398,81.384L1040.398,81.384z"/>
			</g>
		</g>
		<g>
			<g>
				<path fill="#FFFFFF" d="M1236.195,211.175c3.225,0,3.225-5,0-5S1232.971,211.175,1236.195,211.175L1236.195,211.175z"/>
			</g>
		</g>
		<g>
			<g>
				<path fill="#FFFFFF" d="M1278.199,307.185c3.225,0,3.225-5,0-5S1274.975,307.185,1278.199,307.185L1278.199,307.185z"/>
			</g>
		</g>
		<g>
			<g>
				<path fill="#FFFFFF" d="M1251.197,436.197c3.225,0,3.225-5,0-5C1247.973,431.197,1247.973,436.197,1251.197,436.197
					L1251.197,436.197z"/>
			</g>
		</g>
		<g>
			<g>
				<path fill="#FFFFFF" d="M561.127,433.197c3.225,0,3.225-5,0-5S557.902,433.197,561.127,433.197L561.127,433.197z"/>
			</g>
		</g>
		<g>
			<g>
				<path fill="#FFFFFF" d="M153.086,280.182c3.225,0,3.225-5,0-5C149.861,275.182,149.861,280.182,153.086,280.182L153.086,280.182
					z"/>
			</g>
		</g>
		<g>
			<g>
				<path fill="#FFFFFF" d="M423.113,244.178c3.225,0,3.225-5,0-5C419.889,239.178,419.889,244.178,423.113,244.178L423.113,244.178
					z"/>
			</g>
		</g>
		<g>
			<g>
				<path fill="#FFFFFF" d="M264.098,244.178c3.225,0,3.225-5,0-5S260.873,244.178,264.098,244.178L264.098,244.178z"/>
			</g>
		</g>
		<g>
			<g>
				<path fill="#FFFFFF" d="M1032.174,249.178c9.673,0,9.673-15,0-15C1022.502,234.178,1022.502,249.178,1032.174,249.178
					L1032.174,249.178z"/>
			</g>
		</g>
		<g>
			<g>
				<path fill="#FFFFFF" d="M699.141,228.176c9.673,0,9.673-15,0-15C689.468,213.176,689.468,228.176,699.141,228.176
					L699.141,228.176z"/>
			</g>
		</g>
		<g>
			<g>
				<path fill="#FFFFFF" d="M567.128,264.18c9.673,0,9.673-15,0-15C557.455,249.18,557.455,264.18,567.128,264.18L567.128,264.18z"
					/>
			</g>
		</g>
		<g>
			<g>
				<path fill="#FFFFFF" d="M1599.23,366.19c9.673,0,9.673-15,0-15C1589.558,351.19,1589.558,366.19,1599.23,366.19L1599.23,366.19z
					"/>
			</g>
		</g>
		<g>
			<g>
				<path fill="#FFFFFF" d="M1581.23,204.174c9.673,0,9.673-15,0-15C1571.558,189.174,1571.558,204.174,1581.23,204.174
					L1581.23,204.174z"/>
			</g>
		</g>
		<g>
			<g>
				<path fill="#FFFFFF" d="M975.17,387.192c9.673,0,9.673-15,0-15C965.497,372.192,965.497,387.192,975.17,387.192L975.17,387.192z
					"/>
			</g>
		</g>
		<g>
			<g>
				<path fill="#FFFFFF" d="M651.136,549.209c9.673,0,9.673-15,0-15C641.463,534.209,641.463,549.209,651.136,549.209
					L651.136,549.209z"/>
			</g>
		</g>
	</g>
	<g>
		<g>
			<path opacity="0.05" fill="#FFFFFF" d="M465.727,163.79c0-26.588-17.15-49.856-42.238-59.314
				c-6.637-44.614-46.895-78.342-94.861-78.342c-47.023,0-86.751,32.426-94.491,75.886c-28.198,7.676-48.409,32.418-48.409,61.306
				c0,34.277,28.245,62.053,63.504,63.688v0.002c0,0,99.133,2.927,147.357,0.195c0.746,0.225,1.533,0.353,2.35,0.353
				c7.053,0,13.855-1.055,20.246-2.995c0.039-0.011,0.09-0.022,0.125-0.033c0.195-0.058,0.376-0.126,0.563-0.188
				C446.45,215.972,465.727,192.102,465.727,163.79z"/>
			<path opacity="0.3" fill="#FFFFFF" d="M452.217,160.577c0-23.588-15.348-44.23-37.795-52.621
				c-5.939-39.579-41.966-69.501-84.886-69.501c-42.079,0-77.628,28.767-84.556,67.322c-25.232,6.81-43.318,28.759-43.318,54.387
				c0,30.409,25.275,55.05,56.825,56.5l0.001,0.003c0,0,88.707,2.596,131.861,0.173c0.666,0.2,1.371,0.313,2.102,0.313
				c6.311,0,12.398-0.936,18.117-2.657c0.036-0.009,0.078-0.02,0.113-0.029c0.176-0.051,0.336-0.111,0.502-0.167
				C434.969,206.87,452.217,185.695,452.217,160.577z"/>
			<path opacity="0.7" fill="#FFFFFF" d="M437.012,159.531c0-20.839-13.559-39.076-33.391-46.489
				c-5.248-34.966-37.074-61.401-74.994-61.401c-37.176,0-68.582,25.414-74.701,59.477c-22.291,6.015-38.27,25.407-38.27,48.049
				c0,26.865,22.328,48.635,50.202,49.916v0.002c0,0,78.371,2.294,116.497,0.153c0.588,0.177,1.209,0.277,1.855,0.277
				c5.576,0,10.953-0.827,16.006-2.348c0.031-0.009,0.068-0.018,0.1-0.026c0.154-0.045,0.297-0.098,0.445-0.147
				C421.773,200.429,437.012,181.722,437.012,159.531z"/>
		</g>
		<path opacity="0.8" fill="#FFFFFF" d="M369.633,194.346l-7.436-7.488l-18.17,18.02h-7.852v-7.447l17.949-17.939l-7.459-7.458
			l-10.49,10.475v-17.775h-10.549v17.585l-10.477-10.545l-7.475,7.433l17.951,18.102v7.569h-6.957l-18.156-18.02l-7.433,7.488
			l10.627,10.532h-18.211v10.545h18.265l-10.423,10.422l7.478,7.461l17.869-17.884h6.941v6.129l-17.951,18.087l7.475,7.434
			l10.477-10.559v19.054h10.549v-19.23l10.49,10.479l7.459-7.46l-17.949-17.941v-5.992h7.84l17.883,17.884l7.461-7.461
			l-10.424-10.422h17.381v-10.545h-17.312L369.633,194.346z M369.633,194.346"/>
	</g>
</g>
</svg>
