<?xml version="1.0" encoding="utf-8"?>
<!-- Generator: Adobe Illustrator 17.0.0, SVG Export Plug-In . SVG Version: 6.00 Build 0)  -->
<!DOCTYPE svg PUBLIC "-//W3C//DTD SVG 1.1//EN" "http://www.w3.org/Graphics/SVG/1.1/DTD/svg11.dtd">
<svg version="1.1" id="图层_1" xmlns="http://www.w3.org/2000/svg" xmlns:xlink="http://www.w3.org/1999/xlink" x="0px" y="0px"
	 width="140px" height="140px" viewBox="0 0 140 140" enable-background="new 0 0 140 140" xml:space="preserve">
<g>
	<path fill="#FFFFFF" d="M107.099,93.923H95.096c-2.558,0-4.631-2.074-4.631-4.631c0-2.558,2.073-4.631,4.631-4.631h2.741v-0.21
		l4.817,0.195c0.248,0.01,0.463,0.015,0.657,0.015c8.757,0,15.881-7.124,15.881-15.881s-7.124-15.881-15.881-15.881
		c-0.328,0-0.676,0.012-1.035,0.034l-5.959,0.384l1.113-5.868c0.27-1.422,0.406-2.878,0.406-4.328
		c0-13.157-11.093-23.86-24.729-23.86c-13.628,0-24.717,10.693-24.727,23.841c0,0.051,0.001,0.088,0.002,0.127l0.026,5.619
		l-5.52-1.047c-1.148-0.218-2.322-0.328-3.49-0.328c-10.252,0-18.594,8.342-18.594,18.595S29.148,84.661,39.4,84.661h14.082
		c2.557,0,4.631,2.073,4.631,4.631c0,2.557-2.074,4.631-4.631,4.631H39.4c-15.359,0-27.855-12.496-27.855-27.855
		S24.041,38.212,39.4,38.212c0.029,0,0.059,0,0.088,0c1.062-7.008,4.391-13.47,9.637-18.561c6.414-6.224,14.932-9.652,23.984-9.652
		s17.571,3.429,23.985,9.652c6.451,6.261,10.005,14.596,10.005,23.47c0,0.267-0.003,0.533-0.01,0.8
		c12.078,1.828,21.365,12.279,21.365,24.86c0,12.575-9.282,23.025-21.355,24.856V93.923L107.099,93.923z M107.099,93.923"/>
	<path fill="#FFFFFF" d="M38.986,108.383c0,1.41,0.581,2.812,1.578,3.809c0.996,0.997,2.398,1.578,3.809,1.578
		c1.41,0,2.812-0.581,3.809-1.578c0.996-0.997,1.577-2.398,1.577-3.809c0-1.41-0.581-2.811-1.577-3.809
		c-0.997-0.997-2.398-1.577-3.809-1.577c-1.41,0-2.813,0.58-3.809,1.577C39.567,105.571,38.986,106.973,38.986,108.383
		L38.986,108.383z M38.986,108.383"/>
	<path fill="#FFFFFF" d="M79.021,124.613c0,1.41,0.58,2.812,1.577,3.809c0.997,0.997,2.398,1.577,3.809,1.577
		c1.41,0,2.811-0.58,3.809-1.577c0.997-0.996,1.577-2.398,1.577-3.809c0-1.409-0.58-2.812-1.577-3.809
		c-0.997-0.997-2.398-1.577-3.809-1.577c-1.41,0-2.812,0.58-3.809,1.577C79.601,121.802,79.021,123.204,79.021,124.613
		L79.021,124.613z M79.021,124.613"/>
	<path fill="#FFFFFF" d="M71.934,44.632L53.482,80.668l18.113,5.469L61.296,121.14L89.71,77.888l-17.776-6.173V44.632z
		 M71.934,44.632"/>
</g>
</svg>
