<?xml version="1.0" encoding="utf-8"?>
<!-- Generator: Adobe Illustrator 17.0.0, SVG Export Plug-In . SVG Version: 6.00 Build 0)  -->
<!DOCTYPE svg PUBLIC "-//W3C//DTD SVG 1.1//EN" "http://www.w3.org/Graphics/SVG/1.1/DTD/svg11.dtd">
<svg version="1.1" id="图层_1" xmlns="http://www.w3.org/2000/svg" xmlns:xlink="http://www.w3.org/1999/xlink" x="0px" y="0px"
	 width="140px" height="140px" viewBox="0 0 140 140" enable-background="new 0 0 140 140" xml:space="preserve">
<g>
	<path fill="#FFFFFF" d="M109.592,44.602c0.523-8.091-1.843-15.496-6.935-21.599C95.809,14.809,84.375,9.717,72.795,9.717
		c-17.615,0-32.846,12.043-36.627,28.457C21.683,38.526,10,50.063,10,64.214c0,13.816,11.426,25.32,25.586,25.955v0.033h1.225
		v-6.693h-1.225c-10.508-0.627-18.936-9.112-18.936-19.295c0-10.688,9.061-19.389,20.187-19.389c0.6,0,1.199,0.035,1.782,0.085
		l3.146,0.275l0.446-3.12c2.074-14.648,15.232-25.688,30.591-25.688c9.651,0,19.149,4.175,24.754,10.894
		c4.654,5.571,6.378,12.582,4.972,20.288l-0.874,4.792l4.773-0.926c0.652-0.129,1.356-0.188,2.076-0.188
		c6.06,0,14.846,4.74,14.846,13.319c0,10.277-8.358,18.592-18.936,18.995v6.659C118.764,89.732,130,78.486,130,64.549
		C130,53.011,119.637,45.135,109.592,44.602L109.592,44.602z M109.592,44.602"/>
	<path fill="#FFFFFF" d="M82.376,81.809L80,79.415l-5.808,5.759h-2.51v-2.38l5.737-5.733l-2.384-2.384l-3.354,3.348v-5.681h-3.371
		v5.62l-3.349-3.37l-2.389,2.376l5.737,5.785v2.419h-2.224l-5.803-5.759l-2.376,2.394l3.396,3.365h-5.82v3.371h5.838l-3.331,3.331
		l2.39,2.385l5.711-5.716h2.219v1.958l-5.737,5.781l2.389,2.376l3.349-3.375v6.09h3.371v-6.146l3.354,3.35l2.384-2.385l-5.737-5.733
		v-1.915h2.506l5.717,5.716l2.385-2.385l-3.332-3.331h5.556v-3.371H78.98L82.376,81.809z M63.87,110.715l-2.376-2.394l-5.808,5.76
		h-2.51v-2.381l5.737-5.733l-2.384-2.384l-3.354,3.349v-5.682h-3.371v5.621l-3.349-3.371l-2.389,2.376l5.737,5.785v2.42h-2.224
		l-5.803-5.76l-2.376,2.394l3.396,3.366h-5.82v3.37h5.838l-3.331,3.331l2.39,2.385l5.711-5.716h2.219v1.959l-5.737,5.78l2.389,2.376
		l3.349-3.374v6.09h3.371v-6.147l3.354,3.349l2.384-2.384l-5.737-5.734v-1.915h2.506l5.717,5.716l2.385-2.385l-3.332-3.331h5.556
		v-3.37h-5.534L63.87,110.715z M102.431,110.715l-2.376-2.394l-5.808,5.76h-2.51v-2.381l5.737-5.733l-2.384-2.384l-3.354,3.349
		v-5.682h-3.371v5.621l-3.349-3.371l-2.389,2.376l5.737,5.785v2.42h-2.224l-5.803-5.76l-2.376,2.394l3.396,3.366h-5.82v3.37h5.838
		l-3.331,3.331l2.39,2.385l5.711-5.716h2.219v1.959l-5.737,5.78l2.389,2.376l3.349-3.374v6.09h3.371v-6.147l3.354,3.349l2.384-2.384
		l-5.737-5.734v-1.915h2.506l5.717,5.716l2.385-2.385l-3.332-3.331h5.556v-3.37h-5.534L102.431,110.715z M94.43,69.495"/>
</g>
</svg>
