<?xml version="1.0" encoding="utf-8"?>
<!-- Generator: Adobe Illustrator 17.0.0, SVG Export Plug-In . SVG Version: 6.00 Build 0)  -->
<!DOCTYPE svg PUBLIC "-//W3C//DTD SVG 1.1//EN" "http://www.w3.org/Graphics/SVG/1.1/DTD/svg11.dtd">
<svg version="1.1" id="图层_1" xmlns="http://www.w3.org/2000/svg" xmlns:xlink="http://www.w3.org/1999/xlink" x="0px" y="0px"
	 width="140px" height="140px" viewBox="0 0 140 140" enable-background="new 0 0 140 140" xml:space="preserve">
<g>
	<path fill="#FFFFFF" d="M59.2,55.224c9.815-0.182,17.743-8.203,17.743-18.052c0-9.97-8.109-18.069-18.069-18.069
		c-9.899,0-17.956,8.006-18.061,17.872h-0.017v3.051h7.396v-2.854h0.027c0-5.872,4.773-10.646,10.645-10.646
		c5.872,0,10.646,4.774,10.646,10.646c0,5.871-4.774,10.645-10.638,10.645H10v7.424h49.2V55.224L59.2,55.224z M59.2,55.224"/>
	<path fill="#FFFFFF" d="M106.96,24.427c-12.703,0-23.04,10.336-23.04,23.031v7.782h7.414v-7.782h0.017
		c0-8.606,6.995-15.61,15.601-15.61s15.617,7.004,15.617,15.61c0,8.604-7.012,15.608-15.617,15.608H10v7.423h97.448v-0.018
		C119.92,70.214,130,59.998,130,47.458C129.992,34.763,119.664,24.427,106.96,24.427L106.96,24.427z M106.96,24.427"/>
	<path fill="#FFFFFF" d="M100.01,78.624v-0.026h-0.636c-0.283-0.017-0.583-0.052-0.892-0.052v0.052H10v7.415h88.938
		c7.217,0.248,13.027,6.153,13.027,13.423c0,7.431-6.042,13.474-13.475,13.474c-7.413,0-13.456-6.043-13.456-13.474V94.06h-7.44
		v5.375l0,0c0,11.528,9.379,20.896,20.896,20.896c11.539,0,20.906-9.377,20.906-20.896C119.397,88.42,110.826,79.394,100.01,78.624
		L100.01,78.624z M100.01,78.624"/>
</g>
</svg>
