<?xml version="1.0" encoding="utf-8"?>
<!-- Generator: Adobe Illustrator 17.0.0, SVG Export Plug-In . SVG Version: 6.00 Build 0)  -->
<!DOCTYPE svg PUBLIC "-//W3C//DTD SVG 1.1//EN" "http://www.w3.org/Graphics/SVG/1.1/DTD/svg11.dtd">
<svg version="1.1" id="图层_1" xmlns="http://www.w3.org/2000/svg" xmlns:xlink="http://www.w3.org/1999/xlink" x="0px" y="0px"
	 width="140px" height="140px" viewBox="0 0 140 140" enable-background="new 0 0 140 140" xml:space="preserve">
<g>
	<path fill="#FFFFFF" d="M101.864,107.009c15.761,0,28.624-12.083,28.624-27.097c0-12.07-8.392-22.53-20.357-25.943l2.529,3.071
		c-1.724-20.1-19.538-35.616-40.929-35.616c-21.055,0-38.697,15.038-40.858,34.749l2.86-3.067
		c-13.371,2.408-23.245,13.505-23.245,26.609c0,15.014,12.863,27.094,28.625,27.094c1.933,0,3.502-1.57,3.502-3.505
		c0-1.936-1.569-3.503-3.502-3.503c-11.985,0-21.619-9.044-21.619-20.086c0-9.617,7.362-17.89,17.479-19.712
		c1.529-0.274,2.692-1.523,2.864-3.065C39.604,40.856,54.18,28.432,71.73,28.432c17.827,0,32.542,12.813,33.949,29.208
		c0.125,1.448,1.13,2.67,2.529,3.07c9.035,2.575,15.272,10.351,15.272,19.202c0,11.042-9.634,20.089-21.617,20.089
		c-1.934,0-3.503,1.567-3.503,3.503C98.361,105.439,99.93,107.009,101.864,107.009L101.864,107.009L101.864,107.009z
		 M102.337,100.002h-0.474c-1.934,0-3.503,1.567-3.503,3.503c0,1.935,1.569,3.505,3.503,3.505h0.474c1.935,0,3.502-1.57,3.502-3.505
		C105.839,101.569,104.272,100.002,102.337,100.002L102.337,100.002L102.337,100.002z M64.506,86.911l-20.204,25.716
		c-1.196,1.521-0.931,3.725,0.591,4.919c1.524,1.197,3.724,0.932,4.922-0.591L70.018,91.24c1.194-1.522,0.932-3.725-0.59-4.921
		C67.905,85.124,65.702,85.389,64.506,86.911L64.506,86.911L64.506,86.911z M88.386,86.911l-20.202,25.716
		c-1.196,1.521-0.932,3.725,0.588,4.919c1.522,1.197,3.727,0.932,4.921-0.591L93.896,91.24c1.195-1.522,0.932-3.725-0.592-4.921
		C91.785,85.124,89.582,85.389,88.386,86.911L88.386,86.911L88.386,86.911z M88.386,86.911"/>
</g>
</svg>
