<?xml version="1.0" encoding="utf-8"?>
<!-- Generator: Adobe Illustrator 17.0.0, SVG Export Plug-In . SVG Version: 6.00 Build 0)  -->
<!DOCTYPE svg PUBLIC "-//W3C//DTD SVG 1.1//EN" "http://www.w3.org/Graphics/SVG/1.1/DTD/svg11.dtd">
<svg version="1.1" id="图层_1" xmlns="http://www.w3.org/2000/svg" xmlns:xlink="http://www.w3.org/1999/xlink" x="0px" y="0px"
	 width="1920px" height="649.604px" viewBox="0 0 1920 649.604" enable-background="new 0 0 1920 649.604" xml:space="preserve">
<g>
	<g>
		<g>
			<defs>
				<rect id="SVGID_68_" x="-1969.744" y="-100.001" width="1919.191" height="749.606"/>
			</defs>
			<clipPath id="SVGID_1_">
				<use xlink:href="#SVGID_68_"  overflow="visible"/>
			</clipPath>
			<g opacity="0.5" clip-path="url(#SVGID_1_)">
				<g>
					<g>
						<path fill="#D39C42" d="M-1984.113,548.7c0,0,449.976,94,609.908,22c159.934-72.001,475.801-372,1217.488-22
							s410.412-34,483.088,74l28.697,159.736c0,0-57.977,92.264-159.934,78.264s-1653.304-94-1653.304-94l-467.804-50l-243.896-58"
							/>
					</g>
					<g>
						<path fill="#EEAE40" d="M-1348.85,733.124c0,0,511.862-242.429,522.065-324.158c10.199-81.73,1097.59,131.291,868.449,281.305
							c-229.137,150.016-399.168,309.031-399.168,309.031l-771.936-39.004"/>
					</g>
				</g>
			</g>
		</g>
	</g>
</g>
<g>
	<linearGradient id="SVGID_2_" gradientUnits="userSpaceOnUse" x1="960" y1="673.843" x2="960" y2="-106.8851">
		<stop  offset="0" style="stop-color:#A4C4EB"/>
		<stop  offset="1" style="stop-color:#637EC1"/>
	</linearGradient>
	<rect x="0" y="-100" fill="url(#SVGID_2_)" width="1920" height="749.604"/>
	<rect x="1606.416" y="-0.115" opacity="0" fill="#C7E8F9" width="313.553" height="649.835"/>
	<rect x="1292.088" y="-0.115" opacity="0" fill="#C7E8F9" width="313.553" height="649.835"/>
	<rect x="978.533" y="-0.115" opacity="0" fill="#C7E8F9" width="313.553" height="649.835"/>
	<rect x="664.984" y="-0.115" opacity="0" fill="#C7E8F9" width="313.551" height="649.835"/>
	<rect x="0" y="-100" opacity="0.1" fill="#93A9F5" width="1920" height="100"/>
	<path fill="#FFFFFF" d="M374.158,198.318"/>
	<g>
		<g>
			<path fill="#FFFFFF" d="M117.082,425.551c12.897,0,12.897-20,0-20C104.185,405.551,104.185,425.551,117.082,425.551
				L117.082,425.551z"/>
		</g>
	</g>
	<g>
		<g>
			<path fill="#FFFFFF" d="M963.166,554.563c12.897,0,12.897-20,0-20C950.269,534.563,950.269,554.563,963.166,554.563
				L963.166,554.563z"/>
		</g>
	</g>
	<g>
		<g>
			<path fill="#FFFFFF" d="M618.133,488.557c12.897,0,12.897-20,0-20C605.235,468.557,605.235,488.557,618.133,488.557
				L618.133,488.557z"/>
		</g>
	</g>
	<g>
		<g>
			<path fill="#FFFFFF" d="M588.129,319.307c3.225,0,3.225-5,0-5C584.904,314.307,584.904,319.307,588.129,319.307L588.129,319.307z
				"/>
		</g>
	</g>
	<g>
		<g>
			<path fill="#FFFFFF" d="M612.131,200.294c16.121,0,16.121-25,0-25S596.01,200.294,612.131,200.294L612.131,200.294z"/>
		</g>
	</g>
	<g>
		<g>
			<path fill="#FFFFFF" d="M678.139,308.305c16.121,0,16.121-25,0-25C662.018,283.305,662.018,308.305,678.139,308.305
				L678.139,308.305z"/>
		</g>
	</g>
	<g>
		<g>
			<path fill="#FFFFFF" d="M975.168,215.296c16.121,0,16.121-25,0-25C959.047,190.296,959.047,215.296,975.168,215.296
				L975.168,215.296z"/>
		</g>
	</g>
	<g>
		<g>
			<path fill="#FFFFFF" d="M1281.199,305.305c16.121,0,16.121-25,0-25S1265.078,305.305,1281.199,305.305L1281.199,305.305z"/>
		</g>
	</g>
	<g>
		<g>
			<path fill="#FFFFFF" d="M519.121,386.313c16.121,0,16.121-25,0-25S503,386.313,519.121,386.313L519.121,386.313z"/>
		</g>
	</g>
	<g>
		<g>
			<path fill="#FFFFFF" d="M138.084,248.299c16.122,0,16.122-25,0-25C121.962,223.299,121.962,248.299,138.084,248.299
				L138.084,248.299z"/>
		</g>
	</g>
	<g>
		<g>
			<path fill="#FFFFFF" d="M1575.229,272.301c16.121,0,16.121-25,0-25C1559.108,247.301,1559.108,272.301,1575.229,272.301
				L1575.229,272.301z"/>
		</g>
	</g>
	<g>
		<g>
			<path fill="#FFFFFF" d="M657.137,429.816c10.902,0,20-9.098,20-20c0-10.902-9.098-20-20-20c-10.902,0-20,9.098-20,20
				C637.137,420.719,646.234,429.816,657.137,429.816L657.137,429.816z"/>
		</g>
	</g>
	<g>
		<g>
			<path fill="#FFFFFF" d="M1014.172,405.814c10.902,0,20-9.098,20-20c0-10.902-9.098-20-20-20c-10.902,0-20,9.098-20,20
				C994.172,396.716,1003.27,405.814,1014.172,405.814L1014.172,405.814z"/>
		</g>
	</g>
	<g>
		<g>
			<path fill="#FFFFFF" d="M1332.203,210.794c10.902,0,20-9.098,20-20c0-10.902-9.098-20-20-20c-10.902,0-20,9.098-20,20
				C1312.203,201.696,1321.301,210.794,1332.203,210.794L1332.203,210.794z"/>
		</g>
	</g>
	<g>
		<g>
			<path fill="#FFFFFF" d="M1590.229,387.811c10.902,0,20-9.098,20-20c0-10.902-9.098-20-20-20c-10.902,0-20,9.098-20,20
				C1570.229,378.714,1579.326,387.811,1590.229,387.811L1590.229,387.811z"/>
		</g>
	</g>
	<rect x="0" y="-100" fill="none" width="1920" height="749.604"/>
	<g>
		<defs>
			<rect id="SVGID_82_" x="0" y="-100" width="1920" height="749.604"/>
		</defs>
		<clipPath id="SVGID_3_">
			<use xlink:href="#SVGID_82_"  overflow="visible"/>
		</clipPath>
		<path opacity="0.3" clip-path="url(#SVGID_3_)" fill="#FFFFFF" d="M-19.601,627.331c0,0,645.754,12.887,1090.877-115.511
			c289.124-44.397,105.109,122.311,817.124,77.065c82.431-5.238,76.245,0,76.245,0l-3,86.446L761.76,726.665l-775.518-38.557"/>
	</g>
	<g>
		<path opacity="0.8" fill="#FFFFFF" d="M307.674,244.791l-4.785-4.819l-11.693,11.596h-5.055v-4.792l11.553-11.544l-4.801-4.8
			l-6.752,6.743v-11.44h-6.785v11.316l-6.744-6.786l-4.811,4.784l11.555,11.648v4.87h-4.478l-11.684-11.596l-4.783,4.819
			l6.838,6.776h-11.719v6.787h11.752l-6.705,6.708l4.811,4.8l11.502-11.508h4.467v3.945l-11.555,11.639l4.811,4.783l6.744-6.795
			v12.262h6.785v-12.377l6.752,6.744l4.801-4.8l-11.553-11.544v-3.857h5.049l11.504,11.508l4.803-4.8l-6.705-6.708h11.184v-6.787
			h-11.139L307.674,244.791z M307.674,244.791"/>
		<path opacity="0.8" fill="#FFFFFF" d="M400.768,244.791l-4.785-4.819l-11.693,11.596h-5.053v-4.792l11.551-11.544l-4.801-4.8
			l-6.75,6.743v-11.44h-6.789v11.316l-6.744-6.786l-4.809,4.784l11.553,11.648v4.87h-4.477l-11.686-11.596l-4.783,4.819l6.84,6.776
			h-11.719v6.787h11.752l-6.705,6.708l4.813,4.8l11.498-11.508h4.467v3.945l-11.553,11.639l4.809,4.783l6.744-6.795v12.262h6.789
			v-12.377l6.75,6.744l4.801-4.8l-11.551-11.544v-3.857h5.045l11.508,11.508l4.801-4.8l-6.707-6.708h11.185v-6.787h-11.141
			L400.768,244.791z M400.768,244.791"/>
		<g>
			<path opacity="0.05" fill="#FFFFFF" d="M465.727,161.237c0-26.589-17.15-49.857-42.238-59.314
				c-6.637-44.613-46.897-78.342-94.861-78.342c-47.023,0-86.752,32.426-94.492,75.886c-28.197,7.677-48.408,32.418-48.408,61.306
				c0,34.277,28.244,62.055,63.504,63.688v0.003c0,0,99.133,2.927,147.357,0.195c0.746,0.225,1.533,0.352,2.35,0.352
				c7.053,0,13.855-1.055,20.246-2.994c0.039-0.012,0.09-0.023,0.125-0.034c0.195-0.058,0.375-0.126,0.563-0.188
				C446.449,213.419,465.727,189.551,465.727,161.237z"/>
			<path opacity="0.3" fill="#FFFFFF" d="M452.217,158.024c0-23.588-15.348-44.23-37.795-52.62
				c-5.939-39.579-41.967-69.501-84.887-69.501c-42.078,0-77.627,28.767-84.555,67.322c-25.232,6.81-43.318,28.759-43.318,54.387
				c0,30.408,25.275,55.051,56.824,56.5l0.002,0.002c0,0,88.707,2.598,131.861,0.173c0.666,0.201,1.371,0.314,2.102,0.314
				c6.311,0,12.398-0.936,18.117-2.657c0.035-0.009,0.078-0.02,0.113-0.029c0.176-0.051,0.336-0.112,0.502-0.167
				C434.969,204.317,452.217,183.143,452.217,158.024z"/>
			<path opacity="0.7" fill="#FFFFFF" d="M437.012,156.979c0-20.84-13.559-39.076-33.391-46.488
				c-5.248-34.968-37.074-61.402-74.994-61.402c-37.176,0-68.582,25.414-74.701,59.478c-22.291,6.015-38.27,25.408-38.27,48.049
				c0,26.865,22.328,48.635,50.201,49.916v0.002c0,0,78.371,2.295,116.498,0.152c0.588,0.178,1.209,0.277,1.855,0.277
				c5.576,0,10.953-0.827,16.006-2.348c0.031-0.01,0.068-0.018,0.1-0.027c0.154-0.044,0.297-0.098,0.445-0.146
				C421.773,197.877,437.012,179.169,437.012,156.979z"/>
		</g>
		<path opacity="0.8" fill="#FFFFFF" d="M356.135,191.814l-4.863-4.898l-11.883,11.785h-5.137v-4.872l11.74-11.731l-4.879-4.878
			l-6.861,6.852v-11.626h-6.898v11.501l-6.852-6.896l-4.889,4.861l11.74,11.84v4.95h-4.551l-11.873-11.785l-4.863,4.898l6.951,6.888
			h-11.91v6.897h11.945l-6.816,6.815l4.891,4.881l11.688-11.696h4.539v4.008l-11.74,11.829l4.889,4.862l6.852-6.907v12.464h6.898
			v-12.578l6.861,6.853l4.879-4.878l-11.74-11.734v-3.918h5.129l11.697,11.696l4.879-4.881l-6.816-6.815h11.365v-6.897h-11.322
			L356.135,191.814z M356.135,191.814"/>
	</g>
</g>
</svg>
