<?xml version="1.0" encoding="utf-8"?>
<!-- Generator: Adobe Illustrator 17.0.0, SVG Export Plug-In . SVG Version: 6.00 Build 0)  -->
<!DOCTYPE svg PUBLIC "-//W3C//DTD SVG 1.1//EN" "http://www.w3.org/Graphics/SVG/1.1/DTD/svg11.dtd">
<svg version="1.1" id="图层_1" xmlns="http://www.w3.org/2000/svg" xmlns:xlink="http://www.w3.org/1999/xlink" x="0px" y="0px"
	 width="140px" height="140px" viewBox="0 0 140 140" enable-background="new 0 0 140 140" xml:space="preserve">
<g>
	<path fill="#FFFFFF" d="M109.938,55.689c0.523-8.091-1.843-15.496-6.935-21.599c-6.848-8.194-18.282-13.286-29.862-13.286
		c-17.615,0-32.846,12.042-36.627,28.457c-14.485,0.352-26.168,11.889-26.168,26.04c0,13.816,11.426,25.32,25.586,25.955v0.033
		h1.225v-6.694h-1.225c-10.508-0.626-18.936-9.112-18.936-19.295c0-10.688,9.06-19.389,20.188-19.389c0.6,0,1.199,0.035,1.782,0.085
		l3.146,0.275l0.446-3.121c2.074-14.648,15.231-25.689,30.591-25.689c9.651,0,19.148,4.175,24.754,10.895
		c4.654,5.571,6.378,12.582,4.972,20.288l-0.874,4.792l4.773-0.926c0.652-0.128,1.355-0.188,2.076-0.188
		c6.06,0,14.846,4.74,14.846,13.32c0,10.277-8.359,18.591-18.936,18.995v6.66c14.35-0.48,25.586-11.726,25.586-25.662
		C130.346,64.098,119.983,56.222,109.938,55.689L109.938,55.689z M109.938,55.689"/>
	<path fill="#FFFFFF" d="M94.776,80.582l-4.689-4.723L78.626,87.224h-4.953v-4.697l11.322-11.315l-4.705-4.705l-6.617,6.607V61.904
		H67.02v11.092l-6.608-6.651l-4.714,4.688L67.02,82.45v4.774h-4.389L51.18,75.859l-4.688,4.723l6.703,6.643H41.709v6.651h11.521
		l-6.574,6.574l4.715,4.706l11.271-11.28h4.379v3.866l-11.322,11.408l4.714,4.689l6.608-6.66v12.018h6.652v-12.129l6.617,6.609
		l4.705-4.705L73.672,97.655v-3.779h4.945l11.28,11.28l4.706-4.706l-6.574-6.574h10.963v-6.651h-10.92L94.776,80.582z
		 M94.776,80.582"/>
</g>
</svg>
