<?xml version="1.0" encoding="utf-8"?>
<!-- Generator: Adobe Illustrator 17.0.0, SVG Export Plug-In . SVG Version: 6.00 Build 0)  -->
<!DOCTYPE svg PUBLIC "-//W3C//DTD SVG 1.1//EN" "http://www.w3.org/Graphics/SVG/1.1/DTD/svg11.dtd">
<svg version="1.1" id="图层_1" xmlns="http://www.w3.org/2000/svg" xmlns:xlink="http://www.w3.org/1999/xlink" x="0px" y="0px"
	 width="140px" height="140px" viewBox="0 0 140 140" enable-background="new 0 0 140 140" xml:space="preserve">
<g>
	<path fill="#FFFFFF" d="M101.376,107.149c15.761,0,28.624-12.083,28.624-27.097c0-12.07-8.392-22.53-20.357-25.943l2.529,3.071
		c-1.723-20.1-19.538-35.616-40.928-35.616c-21.055,0-38.698,15.038-40.858,34.749l2.86-3.067C19.874,55.654,10,66.751,10,79.855
		c0,15.014,12.863,27.094,28.625,27.094c1.933,0,3.502-1.57,3.502-3.505c0-1.936-1.569-3.503-3.502-3.503
		c-11.985,0-21.619-9.044-21.619-20.086c0-9.617,7.362-17.89,17.48-19.712c1.529-0.274,2.692-1.523,2.864-3.065
		c1.767-16.082,16.343-28.506,33.894-28.506c17.827,0,32.542,12.813,33.948,29.208c0.125,1.448,1.13,2.67,2.529,3.07
		c9.035,2.575,15.272,10.35,15.272,19.202c0,11.042-9.634,20.089-21.617,20.089c-1.934,0-3.503,1.567-3.503,3.503
		C97.873,105.579,99.442,107.149,101.376,107.149L101.376,107.149L101.376,107.149z M101.849,100.142h-0.474
		c-1.934,0-3.503,1.567-3.503,3.503c0,1.935,1.569,3.505,3.503,3.505h0.474c1.936,0,3.502-1.57,3.502-3.505
		C105.351,101.709,103.785,100.142,101.849,100.142L101.849,100.142L101.849,100.142z M77.345,87.051l-20.202,25.716
		c-1.196,1.521-0.932,3.725,0.588,4.919c1.521,1.197,3.727,0.932,4.921-0.591L82.856,91.38c1.194-1.522,0.932-3.725-0.592-4.921
		C80.745,85.264,78.542,85.529,77.345,87.051L77.345,87.051L77.345,87.051z M87.898,87.051"/>
</g>
</svg>
