<?xml version="1.0" encoding="utf-8"?>
<!-- Generator: Adobe Illustrator 17.0.0, SVG Export Plug-In . SVG Version: 6.00 Build 0)  -->
<!DOCTYPE svg PUBLIC "-//W3C//DTD SVG 1.1//EN" "http://www.w3.org/Graphics/SVG/1.1/DTD/svg11.dtd">
<svg version="1.1" id="图层_1" xmlns="http://www.w3.org/2000/svg" xmlns:xlink="http://www.w3.org/1999/xlink" x="0px" y="0px"
	 width="1919.984px" height="649.721px" viewBox="0 0 1919.984 649.721" enable-background="new 0 0 1919.984 649.721"
	 xml:space="preserve">
<g>
	<linearGradient id="SVGID_1_" gradientUnits="userSpaceOnUse" x1="960.0151" y1="654.8024" x2="960.0151" y2="-102.0142">
		<stop  offset="0" style="stop-color:#79818E"/>
		<stop  offset="1" style="stop-color:#647081"/>
	</linearGradient>
	<rect x="0.015" y="-100" fill="url(#SVGID_1_)" width="1920.001" height="749.605"/>
	<rect x="1606.432" y="-0.115" opacity="0" fill="#C7E8F9" width="313.553" height="649.836"/>
	<rect x="1292.104" y="-0.115" opacity="0" fill="#C7E8F9" width="313.553" height="649.836"/>
	<rect x="978.549" y="-0.115" opacity="0" fill="#C7E8F9" width="313.553" height="649.836"/>
	<rect x="664.998" y="-0.115" opacity="0" fill="#C7E8F9" width="313.553" height="649.836"/>
	<rect x="0" y="-100" opacity="0.1" fill="#93A9F5" width="1920" height="100"/>
	<g opacity="0.2">
		<g>
			<linearGradient id="SVGID_2_" gradientUnits="userSpaceOnUse" x1="336.8506" y1="362.3056" x2="336.8506" y2="277.431">
				<stop  offset="0" style="stop-color:#FFFFFF"/>
				<stop  offset="1" style="stop-color:#5A6A78"/>
			</linearGradient>
			<path fill="url(#SVGID_2_)" d="M340.411,359.853c0,1.965-1.594,3.561-3.561,3.561l0,0c-1.967,0-3.56-1.596-3.56-3.561v-76.596
				c0-1.967,1.594-3.561,3.56-3.561l0,0c1.967,0,3.561,1.594,3.561,3.561V359.853z"/>
			<linearGradient id="SVGID_3_" gradientUnits="userSpaceOnUse" x1="433.2334" y1="390.4604" x2="433.2334" y2="324.9482">
				<stop  offset="0" style="stop-color:#FFFFFF"/>
				<stop  offset="1" style="stop-color:#5A6A78"/>
			</linearGradient>
			<path fill="url(#SVGID_3_)" d="M436.4,388.523c0,1.553-1.418,2.813-3.167,2.813l0,0c-1.749,0-3.167-1.26-3.167-2.813V328.01
				c0-1.555,1.418-2.813,3.167-2.813l0,0c1.749,0,3.167,1.258,3.167,2.813V388.523z"/>
			<linearGradient id="SVGID_4_" gradientUnits="userSpaceOnUse" x1="130.8506" y1="455.1084" x2="130.8506" y2="389.4452">
				<stop  offset="0" style="stop-color:#FFFFFF"/>
				<stop  offset="1" style="stop-color:#5A6A78"/>
			</linearGradient>
			<path fill="url(#SVGID_4_)" d="M133.482,453.295c0,1.453-1.178,2.633-2.632,2.633l0,0c-1.454,0-2.632-1.18-2.632-2.633v-56.617
				c0-1.453,1.178-2.633,2.632-2.633l0,0c1.454,0,2.632,1.18,2.632,2.633V453.295z"/>
		</g>
		<g>
			<linearGradient id="SVGID_5_" gradientUnits="userSpaceOnUse" x1="620.9229" y1="181.3056" x2="620.9229" y2="98.9408">
				<stop  offset="0" style="stop-color:#FFFFFF"/>
				<stop  offset="1" style="stop-color:#5A6A78"/>
			</linearGradient>
			<path fill="url(#SVGID_5_)" d="M624.483,178.854c0,1.967-1.594,3.561-3.56,3.561l0,0c-1.967,0-3.561-1.594-3.561-3.561v-76.596
				c0-1.967,1.594-3.561,3.561-3.561l0,0c1.967,0,3.56,1.594,3.56,3.561V178.854z"/>
			<linearGradient id="SVGID_6_" gradientUnits="userSpaceOnUse" x1="712.1523" y1="265.0224" x2="712.1523" y2="181.4135">
				<stop  offset="0" style="stop-color:#FFFFFF"/>
				<stop  offset="1" style="stop-color:#5A6A78"/>
			</linearGradient>
			<path fill="url(#SVGID_6_)" d="M715.713,262.57c0,1.967-1.594,3.56-3.56,3.56l0,0c-1.967,0-3.561-1.594-3.561-3.56v-76.596
				c0-1.967,1.594-3.561,3.561-3.561l0,0c1.967,0,3.56,1.594,3.56,3.561V262.57z"/>
			<linearGradient id="SVGID_7_" gradientUnits="userSpaceOnUse" x1="808.5352" y1="293.1791" x2="808.5352" y2="224.918">
				<stop  offset="0" style="stop-color:#FFFFFF"/>
				<stop  offset="1" style="stop-color:#5A6A78"/>
			</linearGradient>
			<path fill="url(#SVGID_7_)" d="M811.702,291.24c0,1.555-1.418,2.814-3.167,2.814l0,0c-1.749,0-3.167-1.26-3.167-2.814v-60.514
				c0-1.553,1.418-2.813,3.167-2.813l0,0c1.749,0,3.167,1.26,3.167,2.813V291.24z"/>
			<linearGradient id="SVGID_8_" gradientUnits="userSpaceOnUse" x1="506.1523" y1="357.8251" x2="506.1523" y2="296.9475">
				<stop  offset="0" style="stop-color:#FFFFFF"/>
				<stop  offset="1" style="stop-color:#5A6A78"/>
			</linearGradient>
			<path fill="url(#SVGID_8_)" d="M508.784,356.012c0,1.455-1.178,2.633-2.632,2.633l0,0c-1.454,0-2.632-1.178-2.632-2.633v-56.617
				c0-1.453,1.178-2.631,2.632-2.631l0,0c1.454,0,2.632,1.178,2.632,2.631V356.012z"/>
		</g>
		<g>
			<linearGradient id="SVGID_9_" gradientUnits="userSpaceOnUse" x1="1052.5195" y1="287.4267" x2="1052.5195" y2="198.938">
				<stop  offset="0" style="stop-color:#FFFFFF"/>
				<stop  offset="1" style="stop-color:#5A6A78"/>
			</linearGradient>
			<path fill="url(#SVGID_9_)" d="M1056.08,284.975c0,1.965-1.594,3.56-3.561,3.56l0,0c-1.967,0-3.561-1.596-3.561-3.56v-76.596
				c0-1.967,1.594-3.561,3.561-3.561l0,0c1.967,0,3.561,1.594,3.561,3.561V284.975z"/>
			<linearGradient id="SVGID_10_" gradientUnits="userSpaceOnUse" x1="1143.75" y1="371.1435" x2="1143.75" y2="283.6033">
				<stop  offset="0" style="stop-color:#FFFFFF"/>
				<stop  offset="1" style="stop-color:#5A6A78"/>
			</linearGradient>
			<path fill="url(#SVGID_10_)" d="M1147.311,368.691c0,1.965-1.594,3.56-3.561,3.56l0,0c-1.967,0-3.561-1.596-3.561-3.56v-76.596
				c0-1.967,1.594-3.561,3.561-3.561l0,0c1.967,0,3.561,1.594,3.561,3.561V368.691z"/>
			<linearGradient id="SVGID_11_" gradientUnits="userSpaceOnUse" x1="1240.1318" y1="399.2983" x2="1240.1318" y2="326.2812">
				<stop  offset="0" style="stop-color:#FFFFFF"/>
				<stop  offset="1" style="stop-color:#5A6A78"/>
			</linearGradient>
			<path fill="url(#SVGID_11_)" d="M1243.299,397.361c0,1.553-1.418,2.813-3.166,2.813l0,0c-1.75,0-3.168-1.26-3.168-2.813v-60.514
				c0-1.555,1.418-2.813,3.168-2.813l0,0c1.748,0,3.166,1.258,3.166,2.813V397.361z"/>
			<linearGradient id="SVGID_12_" gradientUnits="userSpaceOnUse" x1="937.749" y1="463.9463" x2="937.749" y2="396.8888">
				<stop  offset="0" style="stop-color:#FFFFFF"/>
				<stop  offset="1" style="stop-color:#5A6A78"/>
			</linearGradient>
			<path fill="url(#SVGID_12_)" d="M940.381,462.133c0,1.453-1.178,2.633-2.632,2.633l0,0c-1.454,0-2.632-1.18-2.632-2.633v-56.617
				c0-1.453,1.178-2.633,2.632-2.633l0,0c1.454,0,2.632,1.18,2.632,2.633V462.133z"/>
		</g>
		<g>
			<linearGradient id="SVGID_13_" gradientUnits="userSpaceOnUse" x1="1472.1914" y1="249.0888" x2="1472.1914" y2="163.5612">
				<stop  offset="0" style="stop-color:#FFFFFF"/>
				<stop  offset="1" style="stop-color:#5A6A78"/>
			</linearGradient>
			<path fill="url(#SVGID_13_)" d="M1475.752,246.637c0,1.967-1.594,3.561-3.561,3.561l0,0c-1.967,0-3.561-1.594-3.561-3.561
				v-76.596c0-1.967,1.594-3.561,3.561-3.561l0,0c1.967,0,3.561,1.594,3.561,3.561V246.637z"/>
			<linearGradient id="SVGID_14_" gradientUnits="userSpaceOnUse" x1="1563.4199" y1="332.8056" x2="1563.4199" y2="244.2826">
				<stop  offset="0" style="stop-color:#FFFFFF"/>
				<stop  offset="1" style="stop-color:#5A6A78"/>
			</linearGradient>
			<path fill="url(#SVGID_14_)" d="M1566.98,330.353c0,1.967-1.594,3.561-3.561,3.561l0,0c-1.967,0-3.561-1.594-3.561-3.561v-76.596
				c0-1.967,1.594-3.561,3.561-3.561l0,0c1.967,0,3.561,1.594,3.561,3.561V330.353z"/>
			<linearGradient id="SVGID_15_" gradientUnits="userSpaceOnUse" x1="1659.8037" y1="360.9623" x2="1659.8037" y2="288.2824">
				<stop  offset="0" style="stop-color:#FFFFFF"/>
				<stop  offset="1" style="stop-color:#5A6A78"/>
			</linearGradient>
			<path fill="url(#SVGID_15_)" d="M1662.971,359.023c0,1.555-1.418,2.814-3.168,2.814l0,0c-1.748,0-3.166-1.26-3.166-2.814V298.51
				c0-1.553,1.418-2.813,3.166-2.813l0,0c1.75,0,3.168,1.26,3.168,2.813V359.023z"/>
			<linearGradient id="SVGID_16_" gradientUnits="userSpaceOnUse" x1="1357.4209" y1="425.6083" x2="1357.4209" y2="358.9471">
				<stop  offset="0" style="stop-color:#FFFFFF"/>
				<stop  offset="1" style="stop-color:#5A6A78"/>
			</linearGradient>
			<path fill="url(#SVGID_16_)" d="M1360.053,423.795c0,1.455-1.178,2.633-2.633,2.633l0,0c-1.453,0-2.631-1.178-2.631-2.633
				v-56.617c0-1.453,1.178-2.631,2.631-2.631l0,0c1.455,0,2.633,1.178,2.633,2.631V423.795z"/>
		</g>
	</g>
	<path fill="#FFFFFF" d="M374.173,198.318"/>
	<g>
		<path opacity="0.05" fill="#FFFFFF" d="M466.348,190.527c0-26.588-17.15-49.857-42.238-59.314
			c-6.637-44.613-46.896-78.342-94.861-78.342c-47.023,0-86.751,32.426-94.491,75.887c-28.198,7.676-48.409,32.418-48.409,61.305
			c0,34.277,28.244,62.055,63.503,63.689l0.001,0.002c0,0,99.133,2.926,147.358,0.195c0.745,0.225,1.532,0.352,2.349,0.352
			c7.054,0,13.855-1.055,20.246-2.994c0.039-0.012,0.089-0.021,0.125-0.033c0.195-0.059,0.376-0.127,0.563-0.19
			C447.073,242.709,466.348,218.842,466.348,190.527z"/>
		
			<linearGradient id="SVGID_17_" gradientUnits="userSpaceOnUse" x1="941.5587" y1="1172.2084" x2="941.5587" y2="1068.0753" gradientTransform="matrix(0.8716 0.4901 -0.4901 0.8716 36.8355 -1201.3137)">
			<stop  offset="0" style="stop-color:#FFFFFF"/>
			<stop  offset="1" style="stop-color:#5A6A78"/>
		</linearGradient>
		<path opacity="0.7" fill="url(#SVGID_17_)" d="M289.671,282.006c-1.228,2.186-4.525,2.662-7.366,1.066l0,0
			c-2.84-1.598-4.146-4.664-2.917-6.85l47.86-85.111c1.228-2.184,4.526-2.66,7.367-1.063l0,0c2.84,1.596,4.146,4.662,2.917,6.848
			L289.671,282.006z"/>
		
			<linearGradient id="SVGID_18_" gradientUnits="userSpaceOnUse" x1="978.7813" y1="1153.2814" x2="978.7813" y2="1049.6168" gradientTransform="matrix(0.8716 0.4901 -0.4901 0.8716 36.8355 -1201.3137)">
			<stop  offset="0" style="stop-color:#FFFFFF"/>
			<stop  offset="1" style="stop-color:#5A6A78"/>
		</linearGradient>
		<path opacity="0.7" fill="url(#SVGID_18_)" d="M331.392,283.754c-1.229,2.185-4.526,2.662-7.367,1.064l0,0
			c-2.841-1.596-4.146-4.662-2.919-6.848l47.861-85.111c1.228-2.186,4.526-2.66,7.367-1.064l0,0
			c2.841,1.598,4.146,4.664,2.918,6.848L331.392,283.754z"/>
		<path opacity="0.3" fill="#FFFFFF" d="M452.839,187.314c0-23.588-15.349-44.231-37.797-52.619
			c-5.939-39.58-41.964-69.502-84.886-69.502c-42.078,0-77.627,28.768-84.555,67.322c-25.232,6.811-43.318,28.76-43.318,54.387
			c0,30.41,25.273,55.051,56.825,56.502l0.001,0.002c0,0,88.707,2.596,131.862,0.172c0.667,0.201,1.371,0.313,2.101,0.313
			c6.313,0,12.398-0.936,18.117-2.656c0.035-0.01,0.079-0.02,0.113-0.029c0.176-0.051,0.336-0.111,0.502-0.166
			C435.589,233.609,452.839,212.434,452.839,187.314z"/>
		<path opacity="0.7" fill="#FFFFFF" d="M437.633,186.27c0-20.84-13.559-39.076-33.392-46.488
			c-5.247-34.967-37.073-61.402-74.993-61.402c-37.175,0-68.581,25.414-74.701,59.476c-22.292,6.016-38.27,25.408-38.27,48.049
			c0,26.865,22.328,48.635,50.203,49.916l0.001,0.002c0,0,78.369,2.295,116.495,0.152c0.589,0.178,1.21,0.277,1.856,0.277
			c5.576,0,10.954-0.826,16.006-2.348c0.032-0.008,0.07-0.016,0.1-0.025c0.155-0.045,0.297-0.098,0.444-0.149
			C422.394,227.168,437.633,208.459,437.633,186.27z"/>
	</g>
</g>
</svg>
