<?xml version="1.0" encoding="utf-8"?>
<!-- Generator: Adobe Illustrator 17.0.0, SVG Export Plug-In . SVG Version: 6.00 Build 0)  -->
<!DOCTYPE svg PUBLIC "-//W3C//DTD SVG 1.1//EN" "http://www.w3.org/Graphics/SVG/1.1/DTD/svg11.dtd">
<svg version="1.1" id="图层_1" xmlns="http://www.w3.org/2000/svg" xmlns:xlink="http://www.w3.org/1999/xlink" x="0px" y="0px"
	 width="1919.969px" height="649.835px" viewBox="0 0 1919.969 649.835" enable-background="new 0 0 1919.969 649.835"
	 xml:space="preserve">
<g>
	<linearGradient id="SVGID_1_" gradientUnits="userSpaceOnUse" x1="960.0003" y1="650.6242" x2="960.0003" y2="-123.4019">
		<stop  offset="0" style="stop-color:#79818E"/>
		<stop  offset="1" style="stop-color:#647081"/>
	</linearGradient>
	<rect x="0.002" y="-99.884" fill="url(#SVGID_1_)" width="1919.997" height="749.604"/>
	<rect x="1606.417" y="0" opacity="0" fill="#C7E8F9" width="313.553" height="649.835"/>
	<rect x="1292.086" y="0" opacity="0" fill="#C7E8F9" width="313.553" height="649.835"/>
	<rect x="978.535" y="0" opacity="0" fill="#C7E8F9" width="313.552" height="649.835"/>
	<rect x="664.984" y="0" opacity="0" fill="#C7E8F9" width="313.552" height="649.835"/>
	<rect x="0" y="-99.897" opacity="0.1" fill="#93A9F5" width="1919.999" height="99.897"/>
	<g opacity="0.2">
		<g>
			<linearGradient id="SVGID_2_" gradientUnits="userSpaceOnUse" x1="130.8369" y1="455.2236" x2="130.8369" y2="407.4981">
				<stop  offset="0" style="stop-color:#FFFFFF"/>
				<stop  offset="1" style="stop-color:#5A6A78"/>
			</linearGradient>
			<path fill="url(#SVGID_2_)" d="M133.469,453.41c0,1.453-1.178,2.633-2.631,2.633l0,0c-1.455,0-2.633-1.18-2.633-2.633v-56.617
				c0-1.453,1.178-2.633,2.633-2.633l0,0c1.453,0,2.631,1.18,2.631,2.633V453.41z"/>
		</g>
		<g>
			<linearGradient id="SVGID_3_" gradientUnits="userSpaceOnUse" x1="620.9102" y1="181.4209" x2="620.9102" y2="101.0917">
				<stop  offset="0" style="stop-color:#FFFFFF"/>
				<stop  offset="1" style="stop-color:#5A6A78"/>
			</linearGradient>
			<path fill="url(#SVGID_3_)" d="M624.471,178.969c0,1.967-1.594,3.561-3.561,3.561l0,0c-1.967,0-3.561-1.594-3.561-3.561v-76.596
				c0-1.966,1.594-3.561,3.561-3.561l0,0c1.967,0,3.561,1.595,3.561,3.561V178.969z"/>
			<linearGradient id="SVGID_4_" gradientUnits="userSpaceOnUse" x1="808.5225" y1="293.2944" x2="808.5225" y2="226.7662">
				<stop  offset="0" style="stop-color:#FFFFFF"/>
				<stop  offset="1" style="stop-color:#5A6A78"/>
			</linearGradient>
			<path fill="url(#SVGID_4_)" d="M811.689,291.356c0,1.554-1.418,2.813-3.168,2.813l0,0c-1.748,0-3.166-1.26-3.166-2.813v-60.514
				c0-1.554,1.418-2.813,3.166-2.813l0,0c1.75,0,3.168,1.26,3.168,2.813V291.356z"/>
			<linearGradient id="SVGID_5_" gradientUnits="userSpaceOnUse" x1="506.1396" y1="357.9403" x2="506.1396" y2="296.7694">
				<stop  offset="0" style="stop-color:#FFFFFF"/>
				<stop  offset="1" style="stop-color:#5A6A78"/>
			</linearGradient>
			<path fill="url(#SVGID_5_)" d="M508.771,356.128c0,1.454-1.178,2.632-2.633,2.632l0,0c-1.453,0-2.631-1.178-2.631-2.632v-56.617
				c0-1.454,1.178-2.632,2.631-2.632l0,0c1.455,0,2.633,1.178,2.633,2.632V356.128z"/>
		</g>
		<g>
			<linearGradient id="SVGID_6_" gradientUnits="userSpaceOnUse" x1="1240.1167" y1="399.4135" x2="1240.1167" y2="334.5557">
				<stop  offset="0" style="stop-color:#FFFFFF"/>
				<stop  offset="1" style="stop-color:#5A6A78"/>
			</linearGradient>
			<path fill="url(#SVGID_6_)" d="M1243.284,397.477c0,1.554-1.418,2.813-3.168,2.813l0,0c-1.748,0-3.166-1.259-3.166-2.813v-60.514
				c0-1.554,1.418-2.813,3.166-2.813l0,0c1.75,0,3.168,1.259,3.168,2.813V397.477z"/>
			<linearGradient id="SVGID_7_" gradientUnits="userSpaceOnUse" x1="937.7349" y1="464.0615" x2="937.7349" y2="401.597">
				<stop  offset="0" style="stop-color:#FFFFFF"/>
				<stop  offset="1" style="stop-color:#5A6A78"/>
			</linearGradient>
			<path fill="url(#SVGID_7_)" d="M940.367,462.248c0,1.453-1.178,2.633-2.631,2.633l0,0c-1.455,0-2.633-1.18-2.633-2.633v-56.617
				c0-1.453,1.178-2.633,2.633-2.633l0,0c1.453,0,2.631,1.18,2.631,2.633V462.248z"/>
		</g>
		<g>
			<linearGradient id="SVGID_8_" gradientUnits="userSpaceOnUse" x1="1472.1743" y1="249.2041" x2="1472.1743" y2="165.7349">
				<stop  offset="0" style="stop-color:#FFFFFF"/>
				<stop  offset="1" style="stop-color:#5A6A78"/>
			</linearGradient>
			<path fill="url(#SVGID_8_)" d="M1475.735,246.752c0,1.967-1.594,3.561-3.56,3.561l0,0c-1.967,0-3.561-1.594-3.561-3.561v-76.596
				c0-1.966,1.594-3.561,3.561-3.561l0,0c1.967,0,3.56,1.595,3.56,3.561V246.752z"/>
			<linearGradient id="SVGID_9_" gradientUnits="userSpaceOnUse" x1="1659.7867" y1="361.0776" x2="1659.7867" y2="294.4019">
				<stop  offset="0" style="stop-color:#FFFFFF"/>
				<stop  offset="1" style="stop-color:#5A6A78"/>
			</linearGradient>
			<path fill="url(#SVGID_9_)" d="M1662.954,359.14c0,1.554-1.418,2.814-3.166,2.814l0,0c-1.75,0-3.168-1.26-3.168-2.814v-60.514
				c0-1.554,1.418-2.813,3.168-2.813l0,0c1.748,0,3.166,1.26,3.166,2.813V359.14z"/>
			<linearGradient id="SVGID_10_" gradientUnits="userSpaceOnUse" x1="1357.4038" y1="425.7235" x2="1357.4038" y2="364.075">
				<stop  offset="0" style="stop-color:#FFFFFF"/>
				<stop  offset="1" style="stop-color:#5A6A78"/>
			</linearGradient>
			<path fill="url(#SVGID_10_)" d="M1360.036,423.911c0,1.454-1.178,2.632-2.631,2.632l0,0c-1.455,0-2.633-1.178-2.633-2.632
				v-56.617c0-1.454,1.178-2.632,2.633-2.632l0,0c1.453,0,2.631,1.178,2.631,2.632V423.911z"/>
		</g>
	</g>
	<path fill="#FFFFFF" d="M374.16,198.434"/>
	<g>
		<path opacity="0.05" fill="#FFFFFF" d="M466.941,190.162c0-26.589-17.15-49.857-42.238-59.314
			c-6.637-44.613-46.896-78.342-94.861-78.342c-47.023,0-86.752,32.426-94.492,75.886c-28.197,7.676-48.408,32.418-48.408,61.306
			c0,34.276,28.244,62.054,63.502,63.689l0.002,0.002c0,0,99.133,2.926,147.357,0.195c0.746,0.225,1.533,0.352,2.35,0.352
			c7.053,0,13.855-1.054,20.246-2.994c0.039-0.012,0.088-0.021,0.125-0.033c0.195-0.059,0.375-0.127,0.563-0.188
			C447.666,242.344,466.941,218.476,466.941,190.162z"/>
		
			<linearGradient id="SVGID_11_" gradientUnits="userSpaceOnUse" x1="576.593" y1="1262.2103" x2="576.593" y2="1159.2828" gradientTransform="matrix(0.8716 0.4901 -0.4901 0.8716 418.7433 -1101.2549)">
			<stop  offset="0" style="stop-color:#FFFFFF"/>
			<stop  offset="1" style="stop-color:#606D7F"/>
		</linearGradient>
		<path opacity="0.7" fill="url(#SVGID_11_)" d="M309.365,281.641c-1.228,2.185-4.525,2.662-7.367,1.065l0,0
			c-2.84-1.598-4.145-4.664-2.916-6.849l47.859-85.111c1.229-2.185,4.527-2.661,7.367-1.063l0,0c2.84,1.596,4.147,4.662,2.918,6.848
			L309.365,281.641z"/>
		<path opacity="0.3" fill="#FFFFFF" d="M453.432,186.95c0-23.589-15.348-44.231-37.797-52.62
			c-5.938-39.58-41.963-69.502-84.885-69.502c-42.078,0-77.627,28.768-84.555,67.322c-25.232,6.811-43.318,28.76-43.318,54.387
			c0,30.41,25.273,55.052,56.824,56.502l0.002,0.002c0,0,88.707,2.596,131.861,0.172c0.668,0.201,1.371,0.313,2.102,0.313
			c6.313,0,12.398-0.936,18.117-2.657c0.035-0.01,0.078-0.02,0.113-0.029c0.176-0.051,0.336-0.111,0.502-0.166
			C436.182,233.244,453.432,212.068,453.432,186.95z"/>
		<path opacity="0.7" fill="#FFFFFF" d="M438.227,185.904c0-20.84-13.559-39.076-33.393-46.488
			c-5.246-34.967-37.072-61.402-74.992-61.402c-37.176,0-68.582,25.415-74.701,59.477c-22.293,6.016-38.271,25.408-38.271,48.049
			c0,26.865,22.328,48.636,50.203,49.916l0.002,0.003c0,0,78.369,2.294,116.494,0.152c0.59,0.177,1.211,0.276,1.857,0.276
			c5.576,0,10.953-0.826,16.006-2.348c0.031-0.008,0.07-0.016,0.1-0.025c0.154-0.045,0.297-0.098,0.443-0.147
			C422.986,226.802,438.227,208.094,438.227,185.904z"/>
	</g>
</g>
</svg>
