<?xml version="1.0" encoding="utf-8"?>
<!-- Generator: Adobe Illustrator 17.0.0, SVG Export Plug-In . SVG Version: 6.00 Build 0)  -->
<!DOCTYPE svg PUBLIC "-//W3C//DTD SVG 1.1//EN" "http://www.w3.org/Graphics/SVG/1.1/DTD/svg11.dtd">
<svg version="1.1" id="图层_1" xmlns="http://www.w3.org/2000/svg" xmlns:xlink="http://www.w3.org/1999/xlink" x="0px" y="0px"
	 width="140px" height="140px" viewBox="0 0 140 140" enable-background="new 0 0 140 140" xml:space="preserve">
<path fill="#FFFFFF" d="M125.342,74.23h-8.889c-2.455,0-4.445-1.988-4.445-4.444c0-2.454,1.99-4.445,4.445-4.445h8.889
	c2.455,0,4.443,1.991,4.443,4.445C129.785,72.242,127.797,74.23,125.342,74.23L125.342,74.23z M107.879,44.644
	c-1.736,1.736-4.549,1.736-6.285,0c-1.736-1.735-1.736-4.549,0-6.285l6.285-6.285c1.736-1.735,4.549-1.735,6.285,0
	c1.736,1.735,1.736,4.55,0,6.285L107.879,44.644L107.879,44.644z M101.328,79.331L101.328,79.331
	c3.889,4.631,6.234,10.601,6.234,17.119c0,14.728-11.939,26.668-26.666,26.668H45.342c-19.639,0-35.557-15.917-35.557-35.556
	c0-19.636,15.918-35.556,35.557-35.556c3.494,0,6.865,0.516,10.055,1.458c4.879-6.285,12.484-10.346,21.057-10.346
	c14.728,0,26.668,11.937,26.668,26.666C103.121,73.155,102.468,76.364,101.328,79.331L101.328,79.331z M18.674,87.563
	c0,14.729,11.939,26.668,26.668,26.668h35.555c9.82,0,17.779-7.961,17.779-17.78c0-9.817-7.959-17.777-17.779-17.777
	c-3.555,0-6.852,1.071-9.631,2.869C68.527,69.725,57.99,60.898,45.342,60.898C30.613,60.898,18.674,72.834,18.674,87.563
	L18.674,87.563z M76.453,52.007c-4.916,0-9.369,1.996-12.586,5.223c5.201,3.189,9.525,7.673,12.512,13.011
	c1.473-0.253,2.968-0.455,4.518-0.455c4.725,0,9.152,1.24,13,3.394c0.213-1.098,0.334-2.232,0.334-3.394
	C94.23,59.966,86.271,52.007,76.453,52.007L76.453,52.007z M76.453,34.23c-2.455,0-4.445-1.989-4.445-4.445v-8.888
	c0-2.456,1.99-4.445,4.445-4.445c2.453,0,4.443,1.989,4.443,4.445v8.888C80.896,32.241,78.906,34.23,76.453,34.23L76.453,34.23z
	 M45.025,44.644l-6.285-6.285c-1.734-1.735-1.734-4.55,0-6.285c1.736-1.735,4.551-1.735,6.285,0l6.285,6.285
	c1.736,1.736,1.736,4.55,0,6.285C49.576,46.38,46.762,46.38,45.025,44.644L45.025,44.644z"/>
</svg>
