<?xml version="1.0" encoding="utf-8"?>
<!-- Generator: Adobe Illustrator 17.0.0, SVG Export Plug-In . SVG Version: 6.00 Build 0)  -->
<!DOCTYPE svg PUBLIC "-//W3C//DTD SVG 1.1//EN" "http://www.w3.org/Graphics/SVG/1.1/DTD/svg11.dtd">
<svg version="1.1" id="图层_1" xmlns="http://www.w3.org/2000/svg" xmlns:xlink="http://www.w3.org/1999/xlink" x="0px" y="0px"
	 width="1919.16px" height="649.721px" viewBox="0 0 1919.16 649.721" enable-background="new 0 0 1919.16 649.721"
	 xml:space="preserve">
<g>
	<g>
		<linearGradient id="SVGID_1_" gradientUnits="userSpaceOnUse" x1="959.5957" y1="655.8407" x2="959.5957" y2="-103.3972">
			<stop  offset="0" style="stop-color:#D6B478"/>
			<stop  offset="1" style="stop-color:#AD7C2D"/>
		</linearGradient>
		<rect x="0" y="-100" fill="url(#SVGID_1_)" width="1919.191" height="749.606"/>
		<path opacity="0.5" fill="#EEAE40" d="M1123.301,199.912c0,21.541-17.453,39.004-38.988,39.004
			c-21.531,0-38.986-17.463-38.986-39.004c0-21.541,17.455-39.004,38.986-39.004
			C1105.848,160.908,1123.301,178.371,1123.301,199.912z"/>
		<ellipse fill="#C7A55D" cx="1314.014" cy="265.727" rx="17.994" ry="18.002"/>
		<ellipse fill="#C7A55D" cx="796.406" cy="313.807" rx="17.995" ry="18.002"/>
		<path fill="#C7A55D" d="M701.851,325.881c0,4.963-4.017,8.979-8.976,8.979c-4.956,0-8.973-4.016-8.973-8.979
			c0-4.955,4.017-8.978,8.973-8.978C697.834,316.902,701.851,320.926,701.851,325.881z"/>
		<g>
			<defs>
				<rect id="SVGID_68_" x="0" y="-100" width="1919.191" height="749.606"/>
			</defs>
			<clipPath id="SVGID_2_">
				<use xlink:href="#SVGID_68_"  overflow="visible"/>
			</clipPath>
			<g opacity="0.5" clip-path="url(#SVGID_2_)">
				<g>
					<g>
						<path fill="#D39C42" d="M-14.369,548.701c0,0,449.977,94,609.908,22c159.934-72.001,475.801-372,1217.488-22
							s410.412-34,483.088,74l28.697,159.736c0,0-57.977,92.264-159.934,78.264s-1653.304-94-1653.304-94l-467.804-50l-243.896-58"
							/>
					</g>
					<g>
						<path fill="#EEAE40" d="M620.894,733.125c0,0,511.862-242.429,522.065-324.158c10.199-81.73,1097.59,131.291,868.449,281.305
							c-229.137,150.016-399.168,309.031-399.168,309.031l-771.936-39.004"/>
					</g>
				</g>
			</g>
		</g>
	</g>
	<rect x="1605.74" y="-0.115" opacity="0" fill="#C7E8F9" width="313.42" height="649.836"/>
	<rect x="1291.543" y="-0.115" opacity="0" fill="#C7E8F9" width="313.42" height="649.836"/>
	<rect x="664.703" y="-0.115" opacity="0" fill="#C7E8F9" width="313.42" height="649.836"/>
	<rect x="0" y="-100" opacity="0.1" fill="#93A9F5" width="1919.193" height="100"/>
	<path fill="#FFFFFF" d="M373.999,198.318"/>
	<g>
		<g>
			<path fill="#E8A64D" d="M327.815,76.723c-14.24,0-27.772-1.76-38.102-4.953c-5.682-1.756-10.313-3.926-13.77-6.451
				c-6.871-5.023-8.313-10.754-8.313-14.68c0-3.922,1.441-9.654,8.313-14.676c3.457-2.525,8.088-4.695,13.77-6.451
				c10.33-3.195,23.861-4.953,38.102-4.953c14.242,0,27.772,1.758,38.103,4.953c5.68,1.756,10.31,3.926,13.767,6.451
				C386.557,40.984,388,46.717,388,50.639c0,3.926-1.443,9.656-8.315,14.68c-3.457,2.523-8.088,4.695-13.767,6.451
				C355.587,74.963,342.057,76.723,327.815,76.723L327.815,76.723z M294.707,50.639c1.57,0.539,3.468,1.094,5.726,1.623
				c7.733,1.818,17.46,2.82,27.382,2.82c9.924,0,19.646-1.002,27.383-2.82c2.258-0.529,4.154-1.084,5.729-1.623
				c-1.574-0.537-3.471-1.09-5.729-1.621c-7.736-1.818-17.459-2.82-27.383-2.82c-9.922,0-19.649,1.002-27.382,2.82
				C298.175,49.549,296.277,50.102,294.707,50.639L294.707,50.639z M294.707,50.639"/>
			<path fill="#E8A64D" d="M316.772,268.223c-14.181,0-27.648-1.645-37.926-4.631c-5.644-1.641-10.247-3.668-13.685-6.027
				c-7.088-4.867-8.575-10.574-8.575-14.504c0-5.977,4.841-10.82,10.814-10.82c4.9,0,9.038,3.26,10.368,7.727
				c1.517,0.928,5.086,2.549,11.596,3.977c7.758,1.701,17.488,2.639,27.407,2.639c12.261,0,21.021-0.432,27.566-1.365
				c7.191-1.025,10.044-2.416,11.022-3.051c0.456-5.557,5.109-9.926,10.78-9.926c5.975,0,10.816,4.844,10.816,10.82
				c0,6.318-2.874,12.012-8.094,16.035c-3.67,2.826-8.501,4.895-14.777,6.326C345.484,267.385,334.324,268.223,316.772,268.223
				L316.772,268.223z M316.772,268.223"/>
			<path fill="#E8A64D" d="M322.699,131.313c-22.429,0-43.67-3.215-59.81-9.051c-8.518-3.08-15.371-6.805-20.362-11.07
				c-8.288-7.084-10.028-14.459-10.028-19.396c0-7.086,3.449-17.334,19.891-25.914c5.295-2.764,11.826-0.709,14.59,4.59
				c2.764,5.297,0.71,11.832-4.584,14.598c-6.418,3.348-8.128,6.107-8.263,6.727c0.215,1.033,3.869,5.934,17.476,10.596
				c13.705,4.695,31.85,7.281,51.092,7.281c19.239,0,37.383-2.586,51.088-7.281c13.609-4.662,17.261-9.563,17.477-10.596
				c-0.135-0.619-1.844-3.379-8.26-6.727c-5.297-2.766-7.352-9.301-4.586-14.598c2.763-5.299,9.295-7.354,14.591-4.588
				c16.44,8.578,19.89,18.826,19.89,25.912c0,4.938-1.741,12.313-10.029,19.396c-4.993,4.266-11.842,7.99-20.363,11.07
				C366.365,128.098,345.123,131.313,322.699,131.313L322.699,131.313z M322.699,131.313"/>
			<path fill="#E8A64D" d="M316.772,226.641c-25.155,0-48.945-2.879-66.985-8.111c-9.415-2.729-16.984-6.029-22.492-9.805
				c-9.762-6.691-11.811-14.1-11.811-19.135c0-5.975,4.842-10.822,10.816-10.822c5.699,0,10.365,4.41,10.784,10.004
				c0.9,1.092,5.653,5.797,23.28,10.201c15.564,3.889,35.596,6.029,56.407,6.029c20.811,0,40.843-2.141,56.407-6.029
				c17.624-4.404,22.379-9.109,23.279-10.201c0.418-5.594,5.086-10.004,10.785-10.004c5.973,0,10.816,4.848,10.816,10.822
				c0,5.035-2.05,12.443-11.81,19.135c-5.51,3.775-13.079,7.076-22.493,9.805C365.717,223.762,341.927,226.641,316.772,226.641
				L316.772,226.641z M316.772,226.641"/>
			<path fill="#E8A64D" d="M322.613,176.795c-34.609,0-67.293-4.371-92.032-12.303c-12.692-4.07-22.828-8.938-30.123-14.471
				c-6.453-4.891-14.144-13.076-14.144-24.285c0-11.211,7.691-19.395,14.144-24.287c4.76-3.609,11.545-2.674,15.153,2.088
				c3.607,4.764,2.672,11.549-2.088,15.158c-4.113,3.119-5.579,5.682-5.579,7.039c0,3.393,7.938,11.32,29.238,18.15
				c22.663,7.268,53.003,11.27,85.431,11.27c32.428,0,62.766-4.002,85.428-11.27c21.305-6.83,29.241-14.758,29.241-18.15
				c0-1.816-2.46-5.42-9.391-9.602c-5.116-3.084-6.764-9.734-3.681-14.854c3.084-5.115,9.73-6.764,14.847-3.682
				c9.058,5.463,19.857,14.777,19.857,28.137c0,11.211-7.693,19.395-14.145,24.287c-7.298,5.533-17.434,10.4-30.125,14.469
				C389.906,172.424,357.223,176.795,322.613,176.795L322.613,176.795z M322.613,176.795"/>
			<path opacity="0.5" fill="#E8A64D" d="M244.396,272.512c0,3.139,1.291,6.256,3.51,8.475c2.217,2.219,5.334,3.51,8.471,3.51
				c3.137,0,6.253-1.291,8.471-3.51c2.219-2.219,3.51-5.336,3.51-8.475c0-3.137-1.291-6.256-3.51-8.475
				c-2.218-2.219-5.334-3.512-8.471-3.512c-3.137,0-6.254,1.293-8.471,3.512C245.688,266.256,244.396,269.375,244.396,272.512
				L244.396,272.512z M244.396,272.512"/>
			<path fill="#E8A64D" d="M378.121,272.512c0,3.139,1.292,6.256,3.511,8.475c2.216,2.219,5.333,3.51,8.472,3.51
				c3.136,0,6.254-1.291,8.469-3.51c2.219-2.219,3.511-5.336,3.511-8.475c0-3.137-1.292-6.256-3.511-8.475
				c-2.215-2.219-5.333-3.512-8.469-3.512c-3.139,0-6.256,1.293-8.472,3.512C379.413,266.256,378.121,269.375,378.121,272.512
				L378.121,272.512z M378.121,272.512"/>
			<path opacity="0.7" fill="#E8A64D" d="M187.475,212.027c0,3.137,1.292,6.256,3.51,8.475c2.219,2.219,5.336,3.51,8.473,3.51
				c3.135,0,6.252-1.291,8.472-3.51c2.216-2.219,3.507-5.338,3.507-8.475c0-3.137-1.291-6.258-3.507-8.475
				c-2.22-2.219-5.337-3.512-8.472-3.512c-3.137,0-6.254,1.293-8.473,3.512C188.767,205.77,187.475,208.891,187.475,212.027
				L187.475,212.027z M187.475,212.027"/>
			<path opacity="0.3" fill="#E8A64D" d="M442.234,188.057c0,3.137,1.291,6.256,3.51,8.475c2.219,2.219,5.334,3.51,8.471,3.51
				c3.139,0,6.255-1.291,8.472-3.51c2.22-2.219,3.509-5.338,3.509-8.475s-1.289-6.258-3.509-8.475
				c-2.217-2.219-5.333-3.512-8.472-3.512c-3.137,0-6.252,1.293-8.471,3.512C443.525,181.799,442.234,184.92,442.234,188.057
				L442.234,188.057z M442.234,188.057"/>
		</g>
	</g>
</g>
</svg>
