<?xml version="1.0" encoding="utf-8"?>
<!-- Generator: Adobe Illustrator 17.0.0, SVG Export Plug-In . SVG Version: 6.00 Build 0)  -->
<!DOCTYPE svg PUBLIC "-//W3C//DTD SVG 1.1//EN" "http://www.w3.org/Graphics/SVG/1.1/DTD/svg11.dtd">
<svg version="1.1" id="图层_1" xmlns="http://www.w3.org/2000/svg" xmlns:xlink="http://www.w3.org/1999/xlink" x="0px" y="0px"
	 width="1920px" height="649.606px" viewBox="0 0 1920 649.606" enable-background="new 0 0 1920 649.606" xml:space="preserve">
<g>
	<linearGradient id="SVGID_1_" gradientUnits="userSpaceOnUse" x1="960.0001" y1="1105.8849" x2="960.0001" y2="163.8657">
		<stop  offset="0" style="stop-color:#FFFFFF"/>
		<stop  offset="1" style="stop-color:#009FF0"/>
	</linearGradient>
	<rect x="0" y="-100" fill="url(#SVGID_1_)" width="1920" height="749.604"/>
	<rect x="1606.416" y="-0.115" opacity="0" fill="#C7E8F9" width="313.553" height="649.836"/>
	<rect x="1292.088" y="-0.115" opacity="0" fill="#C7E8F9" width="313.553" height="649.836"/>
	<rect x="978.533" y="-0.115" opacity="0" fill="#C7E8F9" width="313.553" height="649.836"/>
	<rect x="664.983" y="-0.115" opacity="0" fill="#C7E8F9" width="313.552" height="649.836"/>
	<rect x="0" y="-100" opacity="0.3" fill="#93A9F5" width="1920" height="100"/>
	<g>
		<defs>
			<rect id="SVGID_76_" x="1599.193" y="-100.115" width="320" height="749.721"/>
		</defs>
		<clipPath id="SVGID_2_">
			<use xlink:href="#SVGID_76_"  overflow="visible"/>
		</clipPath>
		<g opacity="0.15" clip-path="url(#SVGID_2_)">
			
				<image overflow="visible" width="1825" height="2263" xlink:href="A1702696.png"  transform="matrix(0.24 0 0 0.24 1674.4697 -17.0731)">
			</image>
		</g>
	</g>
	<g>
		<defs>
			<rect id="SVGID_78_" x="0" y="-100" width="1920" height="749.606"/>
		</defs>
		<clipPath id="SVGID_3_">
			<use xlink:href="#SVGID_78_"  overflow="visible"/>
		</clipPath>
		<g opacity="0.2" clip-path="url(#SVGID_3_)">
			
				<image overflow="visible" width="2950" height="2261" xlink:href="A170269A.png"  transform="matrix(0.24 0 0 0.24 169.1699 409.5208)">
			</image>
		</g>
	</g>
</g>
<g>
	<g>
		<circle opacity="0.1" fill="#FFDA00" cx="247.424" cy="118.271" r="68.231"/>
		<circle opacity="0.3" fill="#FFDA00" cx="247.424" cy="118.271" r="59.105"/>
		<circle opacity="0.5" fill="#FFDA00" cx="247.424" cy="118.271" r="49.544"/>
		<circle fill="#FFDA00" cx="247.424" cy="118.271" r="38.244"/>
	</g>
	<g>
		<path opacity="0.05" fill="#FFFFFF" d="M459.193,192.877c0-24.645-15.896-46.211-39.15-54.977
			c-6.151-41.35-43.466-72.611-87.923-72.611c-43.585,0-80.406,30.055-87.58,70.336c-26.136,7.113-44.869,30.047-44.869,56.82
			c0,31.769,26.179,57.516,58.858,59.031l0.001,0.002c0,0,91.882,2.711,136.581,0.182c0.691,0.207,1.42,0.324,2.177,0.324
			c6.538,0,12.842-0.976,18.765-2.773c0.036-0.012,0.083-0.021,0.116-0.031c0.181-0.055,0.349-0.117,0.522-0.176
			C441.327,241.242,459.193,219.119,459.193,192.877z"/>
		<path opacity="0.15" fill="#FFFFFF" d="M446.672,189.898c0-21.863-14.226-40.996-35.032-48.771
			c-5.504-36.684-38.895-64.418-78.677-64.418c-39.001,0-71.949,26.664-78.371,62.398c-23.387,6.313-40.15,26.656-40.15,50.408
			c0,28.188,23.425,51.025,52.669,52.369l0.001,0.002c0,0,82.219,2.406,122.218,0.16c0.618,0.186,1.271,0.291,1.947,0.291
			c5.851,0,11.492-0.867,16.792-2.463c0.033-0.01,0.074-0.02,0.105-0.027c0.163-0.047,0.311-0.104,0.466-0.154
			C430.684,232.806,446.672,213.179,446.672,189.898z"/>
		<path opacity="0.5" fill="#FFFFFF" d="M432.578,188.929c0-19.316-12.566-36.219-30.95-43.088
			c-4.863-32.41-34.361-56.912-69.508-56.912c-34.456,0-63.565,23.557-69.237,55.127c-20.662,5.576-35.471,23.551-35.471,44.535
			c0,24.9,20.694,45.078,46.531,46.264l0,0.004c0,0,72.637,2.125,107.975,0.141c0.546,0.164,1.122,0.256,1.721,0.256
			c5.168,0,10.152-0.766,14.835-2.176c0.029-0.006,0.065-0.014,0.092-0.023c0.144-0.041,0.275-0.09,0.412-0.137
			C418.453,226.836,432.578,209.498,432.578,188.929z"/>
	</g>
</g>
</svg>
