<?xml version="1.0" encoding="utf-8"?>
<!-- Generator: Adobe Illustrator 17.0.0, SVG Export Plug-In . SVG Version: 6.00 Build 0)  -->
<!DOCTYPE svg PUBLIC "-//W3C//DTD SVG 1.1//EN" "http://www.w3.org/Graphics/SVG/1.1/DTD/svg11.dtd">
<svg version="1.1" id="图层_1" xmlns="http://www.w3.org/2000/svg" xmlns:xlink="http://www.w3.org/1999/xlink" x="0px" y="0px"
	 width="30px" height="30px" viewBox="0 0 30 30" enable-background="new 0 0 30 30" xml:space="preserve">
<g>
	<path fill="#FFFFFF" d="M13.214,5.993c-2.37,2.659-5.301,5.578-7.677,8.244c-1.229,1.396-0.032,2.306,0.464,2.306h2.253v6.675
		c0,0.835,0.601,1.771,1.459,1.771h3.314l-0.025-6.06h4.499l-0.02,6.06h3.314c0.645,0,1.458-0.59,1.458-2.259v-6.187h1.761
		c0.849,0,1.341-1.004,0.672-1.932c-2.194-2.592-5.065-5.747-7.431-8.544C15.749,4.572,14.371,4.771,13.214,5.993L13.214,5.993z
		 M13.214,5.993"/>
</g>
</svg>
