<?xml version="1.0" encoding="utf-8"?>
<!-- Generator: Adobe Illustrator 17.0.0, SVG Export Plug-In . SVG Version: 6.00 Build 0)  -->
<!DOCTYPE svg PUBLIC "-//W3C//DTD SVG 1.1//EN" "http://www.w3.org/Graphics/SVG/1.1/DTD/svg11.dtd">
<svg version="1.1" id="图层_1" xmlns="http://www.w3.org/2000/svg" xmlns:xlink="http://www.w3.org/1999/xlink" x="0px" y="0px"
	 width="181.598px" height="48px" viewBox="0 0 181.598 48" enable-background="new 0 0 181.598 48" xml:space="preserve">
<rect x="0" fill="#303547" width="181.598" height="48"/>
<g>
	<g>
		<g>
			<path fill="#6A85EA" d="M44.129,4.101c-2.703-2.166-6.431-1.826-9.122-1.323c-2.699,0.503-3.104,2.528-3.104,2.528l-3.967,9.661
				l-3.972-9.661c0,0-0.401-2.025-3.092-2.528c-2.692-0.503-6.418-0.843-9.135,1.323c0,0-0.697,0.606-0.697,1.421
				c0,0.602,0,15.065,0,15.065h7.064V7.996l5.046,10.286c0,0,1.139,2.798,4.785,2.675c3.637,0.123,4.781-2.675,4.781-2.675
				l5.052-10.286v12.591h7.066c0,0,0-14.463,0-15.065C44.835,4.706,44.129,4.101,44.129,4.101z"/>
			<polygon fill="#6A85EA" points="54.836,2.401 46.997,2.401 58.281,11.686 62.439,8.408 			"/>
			<polygon fill="#6A85EA" points="46.997,20.587 55.757,20.587 62.439,15.1 58.281,11.686 			"/>
			<polygon fill="#6A85EA" points="69.118,20.587 77.88,20.587 66.593,11.686 62.439,15.1 			"/>
			<polygon fill="#6A85EA" points="70.036,2.401 62.439,8.408 66.593,11.686 77.88,2.401 			"/>
			<path fill="#6A85EA" d="M79.932,4.2c0,0-0.97,0.795-0.97,2.139c0,1.174,0,9.155,0,10.341c0,1.336,0.97,2.127,0.97,2.127
				c1.783,1.773,5.698,1.78,5.698,1.78h15.753v-3.95c0,0-11.281,0-13.215,0c-1.928,0-1.802-1.379-1.802-1.379V7.75
				c0,0-0.125-1.382,1.802-1.382c1.934,0,13.215,0,13.215,0V2.421H85.63C85.63,2.421,81.715,2.434,79.932,4.2z"/>
			<polygon fill="#6A85EA" points="122.443,9.611 112.343,9.611 112.343,2.449 104.918,2.449 104.918,20.553 112.318,20.553 
				112.318,13.526 122.47,13.526 122.47,20.553 129.875,20.553 129.875,2.449 122.443,2.449 			"/>
			<rect x="134.334" y="2.421" fill="#6A85EA" width="7.428" height="18.097"/>
			<path fill="#6A85EA" d="M170.554,5.909c0,0,0.338-3.46-7.003-3.46c-7.329,0-17.391,0-17.391,0v18.104h7.348v-6.564
				c0,0,2.714,0,10.043,0c7.341,0,7.003-3.47,7.003-3.47V5.909z M160.854,9.943h-7.346V6.489h7.346c0,0,2.301-0.237,2.301,1.729
				C163.156,10.177,160.854,9.943,160.854,9.943z"/>
		</g>
		<g>
			<path fill="#6A85EA" d="M28.128,42.448v1.674H12.013v-1.674h7.04v-9.867h-6.085v-1.729h14.224v1.729h-6.266v9.867H28.128z"/>
			<path fill="#6A85EA" d="M63.366,42.898v1.656H47.539v-1.656h4.844V29.142h1.71v13.757h2.719V29.16h1.71v13.738H63.366z
				 M50.186,39.837c-0.414-1.656-1.422-4.429-2.305-6.5l1.53-0.485c0.9,2.052,1.981,4.753,2.449,6.373L50.186,39.837z
				 M63.114,33.644c-0.846,2.142-2.017,4.627-2.989,6.319l-1.386-0.72c0.954-1.639,2.179-4.268,2.845-6.338L63.114,33.644z"/>
			<path fill="#6A85EA" d="M89.439,38.307c-0.702,0.234-1.404,0.45-2.106,0.666v6.446h-1.548v-5.96l-2.827,0.864l-0.432-1.603
				c0.9-0.234,2.035-0.54,3.259-0.882v-3.781h-1.44c-0.216,0.954-0.468,1.818-0.738,2.503c-0.27-0.217-0.882-0.576-1.225-0.757
				c0.63-1.458,0.955-3.727,1.134-5.869l1.423,0.233c-0.09,0.774-0.18,1.549-0.306,2.305h1.152v-3.564h1.548v3.564h1.674v1.585
				h-1.674v3.313l1.891-0.54L89.439,38.307z M98.982,31.807c0,0,0,0.576-0.018,0.792c-0.396,8.085-0.738,10.93-1.44,11.812
				c-0.378,0.541-0.738,0.702-1.314,0.793c-0.486,0.09-1.242,0.071-2.035,0.036c-0.018-0.486-0.198-1.171-0.468-1.639
				c0.756,0.071,1.422,0.071,1.764,0.071c0.288,0,0.468-0.071,0.648-0.323c0.522-0.595,0.9-3.151,1.224-9.993h-0.504
				c-0.918,4.646-2.845,9.381-5.762,11.722c-0.324-0.307-0.918-0.738-1.387-0.99c2.899-2.071,4.79-6.374,5.69-10.731h-1.206
				c-0.792,3.024-2.358,6.319-4.267,8.012c-0.306-0.306-0.846-0.72-1.296-0.954c1.854-1.44,3.331-4.285,4.159-7.058h-1.278
				c-0.558,1.296-1.207,2.431-1.944,3.313c-0.27-0.233-0.936-0.738-1.297-0.954c1.459-1.584,2.485-4.142,3.079-6.806l1.513,0.288
				c-0.198,0.9-0.468,1.782-0.738,2.61H98.982z"/>
			<path fill="#6A85EA" d="M124.209,41.926v3.511h-1.44v-3.24c-1.657,0.27-3.223,0.54-4.483,0.773l-0.342-1.566
				c0.324-0.036,0.684-0.09,1.063-0.144V31.158h-0.882v-1.512h6.788v1.512h-0.702v9.291l1.314-0.216l0.108,1.44L124.209,41.926z
				 M120.5,31.158v2.233h2.269v-2.233H120.5z M120.5,37.046h2.269v-2.269H120.5V37.046z M120.5,41.025
				c0.72-0.107,1.495-0.234,2.269-0.36v-2.232H120.5V41.025z M130.151,38.577c0.756,2.467,2.287,4.519,4.483,5.455
				c-0.378,0.307-0.864,0.954-1.098,1.368c-1.801-0.899-3.133-2.466-4.051-4.465c-0.63,1.62-1.801,3.277-3.907,4.663
				c-0.252-0.359-0.828-0.9-1.242-1.188c2.809-1.729,3.763-3.925,4.069-5.833h-3.367v-1.513h3.511
				c0.018-0.252,0.018-0.504,0.018-0.721V34.13h-3.115v-1.531h2.179c-0.342-0.773-1.044-1.908-1.746-2.736l1.369-0.666
				c0.72,0.828,1.458,1.908,1.782,2.664l-1.368,0.738h2.179c0.63-0.954,1.35-2.358,1.746-3.385l1.711,0.469
				c-0.559,1.008-1.188,2.07-1.747,2.916h2.251v1.531h-3.547v2.25c0,0.217,0,0.45-0.018,0.685h4.159v1.513H130.151z"/>
			<path fill="#6A85EA" d="M169.098,43.313c0,1.008-0.252,1.512-0.9,1.782c-0.666,0.271-1.71,0.306-3.349,0.306
				c-0.108-0.468-0.396-1.242-0.63-1.674c1.134,0.072,2.376,0.054,2.737,0.036c0.342-0.019,0.468-0.126,0.468-0.469V31.537H155.9
				v10.731c1.17-1.152,2.035-2.7,2.665-4.537c-0.793-1.044-1.639-2.125-2.413-3.043l0.972-0.972c0.63,0.72,1.296,1.53,1.927,2.34
				c0.288-1.098,0.522-2.269,0.684-3.492l1.494,0.161c-0.27,1.728-0.594,3.331-1.044,4.79c0.666,0.918,1.278,1.782,1.692,2.484
				l-1.063,1.152c-0.306-0.576-0.738-1.242-1.224-1.962c-0.63,1.602-1.458,2.988-2.467,4.068c-0.252-0.216-0.846-0.63-1.225-0.864
				V45.4h-1.674V29.952h14.872V43.313z M165.857,41.638c-0.306-0.685-0.738-1.494-1.278-2.358c-0.648,1.639-1.494,3.043-2.575,4.123
				c-0.27-0.216-0.936-0.702-1.296-0.918c1.278-1.171,2.215-2.81,2.863-4.754c-0.72-1.063-1.53-2.125-2.323-3.043l1.026-0.9
				c0.612,0.666,1.225,1.423,1.818,2.197c0.252-1.063,0.45-2.197,0.612-3.386l1.495,0.162c-0.234,1.729-0.558,3.313-0.99,4.771
				c0.756,1.099,1.386,2.179,1.782,3.062L165.857,41.638z"/>
		</g>
	</g>
</g>
</svg>
