<?xml version="1.0" encoding="utf-8"?>
<!-- Generator: Adobe Illustrator 17.0.0, SVG Export Plug-In . SVG Version: 6.00 Build 0)  -->
<!DOCTYPE svg PUBLIC "-//W3C//DTD SVG 1.1//EN" "http://www.w3.org/Graphics/SVG/1.1/DTD/svg11.dtd">
<svg version="1.1" id="图层_1" xmlns="http://www.w3.org/2000/svg" xmlns:xlink="http://www.w3.org/1999/xlink" x="0px" y="0px"
	 width="151.331px" height="40px" viewBox="0 0 151.331 40" enable-background="new 0 0 151.331 40" xml:space="preserve">
<g>
	<g>
		<g>
			<path fill="#6A85EA" d="M36.772,3.416c-2.252-1.805-5.359-1.522-7.602-1.103c-2.25,0.419-2.587,2.107-2.587,2.107l-3.306,8.051
				l-3.31-8.051c0,0-0.334-1.688-2.577-2.107c-2.243-0.419-5.349-0.702-7.613,1.103c0,0-0.581,0.505-0.581,1.184
				c0,0.502,0,12.555,0,12.555h5.887V6.663l4.206,8.572c0,0,0.949,2.332,3.987,2.229c3.031,0.103,3.984-2.229,3.984-2.229
				l4.211-8.572v10.493h5.889c0,0,0-12.053,0-12.555C37.36,3.921,36.772,3.416,36.772,3.416z"/>
			<polygon fill="#6A85EA" points="45.695,2 39.162,2 48.565,9.738 52.031,7.006 			"/>
			<polygon fill="#6A85EA" points="39.162,17.156 46.462,17.156 52.031,12.583 48.565,9.738 			"/>
			<polygon fill="#6A85EA" points="57.597,17.156 64.899,17.156 55.493,9.738 52.031,12.583 			"/>
			<polygon fill="#6A85EA" points="58.362,2 52.031,7.006 55.493,9.738 64.899,2 			"/>
			<path fill="#6A85EA" d="M66.609,3.499c0,0-0.808,0.663-0.808,1.782c0,0.978,0,7.63,0,8.618c0,1.113,0.808,1.772,0.808,1.772
				c1.486,1.478,4.748,1.484,4.748,1.484h13.128v-3.292c0,0-9.402,0-11.014,0c-1.607,0-1.502-1.149-1.502-1.149V6.458
				c0,0-0.105-1.152,1.502-1.152c1.612,0,11.014,0,11.014,0v-3.29H71.358C71.358,2.016,68.095,2.027,66.609,3.499z"/>
			<polygon fill="#6A85EA" points="102.038,8.009 93.62,8.009 93.62,2.04 87.432,2.04 87.432,17.127 93.6,17.127 93.6,11.271 
				102.06,11.271 102.06,17.127 108.231,17.127 108.231,2.04 102.038,2.04 			"/>
			<rect x="111.948" y="2.016" fill="#6A85EA" width="6.191" height="15.082"/>
			<path fill="#6A85EA" d="M142.133,4.923c0,0,0.282-2.884-5.836-2.884c-6.108,0-14.493,0-14.493,0v15.087h6.123v-5.471
				c0,0,2.262,0,8.37,0c6.118,0,5.836-2.892,5.836-2.892V4.923z M134.049,8.285h-6.122V5.407h6.122c0,0,1.918-0.198,1.918,1.441
				C135.967,8.48,134.049,8.285,134.049,8.285z"/>
		</g>
		<text transform="matrix(1 0 0 1 9.1966 35.1301)" fill="#6A85EA" font-family="'SourceHanSansCN-Normal'" font-size="16.6">气象站云监控系统</text>
	</g>
</g>
</svg>
